<?xml version="1.0" encoding="UTF-8" standalone="no"?>
<svg
   version="1.0"
   width="1024pt"
   height="1024pt"
   viewBox="0 0 1024 1024"
   preserveAspectRatio="xMidYMid"
   id="svg88"
   sodipodi:docname="TaL.svg"
   inkscape:export-filename="Nueva imagen/public/icons/safari-pinned-tab.svg"
   inkscape:export-xdpi="18"
   inkscape:export-ydpi="18"
   xmlns:inkscape="http://www.inkscape.org/namespaces/inkscape"
   xmlns:sodipodi="http://sodipodi.sourceforge.net/DTD/sodipodi-0.dtd"
   xmlns="http://www.w3.org/2000/svg"
   xmlns:svg="http://www.w3.org/2000/svg">
  <defs
     id="defs92" />
  <sodipodi:namedview
     id="namedview90"
     pagecolor="#ffffff"
     bordercolor="#000000"
     borderopacity="0.25"
     inkscape:showpageshadow="2"
     inkscape:pageopacity="0.0"
     inkscape:pagecheckerboard="0"
     inkscape:deskcolor="#d1d1d1"
     inkscape:document-units="pt"
     showgrid="false"
     inkscape:zoom="0.63574219"
     inkscape:cx="332.68203"
     inkscape:cy="660.64516"
     inkscape:window-width="1920"
     inkscape:window-height="1052"
     inkscape:window-x="0"
     inkscape:window-y="0"
     inkscape:window-maximized="1"
     inkscape:current-layer="svg88" />
  <g
     id="g1041"
     transform="matrix(1.4554444,0,0,1.4554444,-234.60075,-213.37144)">
    <g
       transform="matrix(0.1,0,0,-0.1,25.624933,1035.6516)"
       fill="#000000"
       stroke="none"
       id="g86">
      <path
         id="path64"
         d="m 5170.3815,8838.9965 c -101.1227,0 -201.3789,-5 -263.3789,-15 -350.9908,-54 -643.0104,-208.0076 -831.0058,-438.003 -31,-36.9977 -56.001,-68.9863 -56.001,-70.9863 0,-1 35.0052,7.9951 78.0029,19.9951 110.9977,32 248.0004,53.9922 382.9981,61.9922 96.9977,5 116.9961,4.0059 120.9961,-8.9941 5,-13 -12.9926,-16.002 -114.9903,-22.002 -230.9931,-12 -471.9993,-67.0049 -506.997,-115.0049 -23,-33.9977 -110.0098,-205.9902 -110.0098,-219.9902 0,-6 12.0078,-13.0068 28.0078,-17.0068 193.9954,-42 322.0033,-90.0004 461.001,-172.9981 94.9977,-56.9977 111.986,-74.0029 92.9883,-93.0029 -7,-7 -30.9952,3.0059 -79.9952,36.0059 -104.9977,68.9977 -257.0026,132.9941 -412.998,173.9941 l -37.002,10.0049 -25.0048,-86.9971 c -30,-98.9977 -42.9896,-171.9984 -51.9873,-285.9961 l -6.0059,-80.0098 105,-44.0039 c 134.9977,-55.9977 264.0068,-128.9905 272.0068,-152.9882 3,-11 3.9922,-21.002 1.9922,-22.002 -1,-2 -46.0003,20.9974 -97.998,49.9951 -90.9977,52 -250.003,123.999 -273.003,123.999 -26.9977,0 32.0059,-421.9951 66.0059,-469.9951 18,-24.9977 112.0043,-111.0016 262.002,-236.997 203.9931,-170.9977 230.9983,-210.0092 255.996,-362.0069 11,-63.9977 13.004,-68.9951 44.004,-79.9951 51.9977,-19 112.9892,-68.0052 133.9892,-108.0029 16,-32 45.0043,-125.0043 142.002,-454.9951 11,-41 -8.9971,-34.9958 -26.9971,7.0019 -8,20 -40.0049,121.9906 -70.0049,227.9883 -31,104.9977 -64.9922,205.001 -76.9922,221.001 -20,28.9977 -102.0068,86.0009 -122.0068,86.0009 -8,0 -8.999,-17.9993 -3.999,-56.997 4,-32 7.998,-115.0013 7.998,-183.999 1,-152.9977 -1.9925,-158.9942 -99.9902,-158.9942 l -63.999,-1.0107 54.9902,-27.9932 c 30,-16 143.0072,-68.001 250.0049,-116.001 106.9977,-47.9977 262.0062,-119.0042 344.0039,-157.0019 82.9977,-38 302.9948,-137.0072 489.9902,-220.0049 187.9954,-82.9977 342.0039,-151.999 344.0039,-153.999 5,-3 -58.998,-122.9942 -67.998,-128.9942 -5,-3 -11.9961,-0.01 -15.9961,5.9912 -4,8 -3.001,9.0098 3.999,5.0098 7,-4 11.9971,-5.0068 11.9971,-2.0068 0,3 -8.9974,10.0107 -19.9951,16.0107 -17,9 -19.0118,7.9912 -12.0118,-9.0088 4,-11 33.0098,-37.9961 65.0098,-60.9961 32,-22.9977 56.9941,-43.9961 53.9941,-45.9961 -2,-2 -39.9941,14.9981 -83.9941,37.9981 -44,22 -94.0059,40.9971 -111.0059,41.9971 -15.9977,0 -28.0009,4.0019 -26.0009,7.0019 2,4 -3.001,9.9932 -11.001,12.9932 -13,5 -15.001,0 -11.001,-26.9971 23,-141.9977 29.0117,-256.9987 12.0117,-206.001 -12,36 -57.0019,280.9961 -52.0019,285.9961 3,3 17.9883,1.0049 32.9883,-4.9951 24.9977,-8 29.0039,-7.0036 29.0039,8.9941 0,13 -14.0023,23.0137 -45,34.0137 -56,19 -71.001,18.9961 -71.001,0.9961 0,-13 -4.9974,-13 -34.9951,0 l -34.9951,14.0039 5.9912,-42.0117 c 4,-24 17,-101.002 30,-172.002 13,-70.9977 21.999,-130.9892 18.999,-133.9892 -2,-3 -53.002,39.9974 -112.002,94.9951 -179.9954,166.9954 -441.9977,386.9987 -405,341.001 7,-9 9.0098,-17.9951 5.0098,-19.9951 -4,-3 -2.0049,-3.0069 4.9951,-2.0069 6,2 11.9971,-0.9951 11.9971,-4.9951 0,-5 -5.9971,-12.0039 -11.9971,-14.0039 -9,-4 -1.9948,-14.999 18.0029,-33.999 18,-15 31.004,-36 29.004,-45 -2,-12 17.9905,-32.9974 62.9882,-64.9951 37,-26 140.0121,-103.0082 230.0098,-171.0059 l 161.9971,-123.0029 v -101.9971 -101.9971 l -97.002,93.003 c -361.9908,344.9908 -780.0049,666.0065 -1087.998,832.0019 -44,24 -82.0049,46.9912 -85.0049,50.9912 -3,3 -30.9922,8.001 -61.9922,11.001 -65.9977,5 -56.0003,18.9954 -97.998,-135 l -22.002,-78.999 68.9941,-71.001 c 140.9977,-145.9977 358.0004,-445.0072 442.9981,-610.0049 34,-65.9977 36,-66.9873 75,-66.9873 22,0 139.0121,-7 260.0098,-15 120.9954,-8 227.997,-15 236.997,-15 13,0 -7.0101,-47.0111 -88.0078,-204.0088 l -105,-205.0049 22.9981,-13.9892 c 12.9977,-8 73.0078,-45.002 133.0078,-82.002 160.9954,-98.9977 363.0104,-240.0091 516.0058,-362.0068 150.9977,-120.9977 470.9906,-435.0004 572.9883,-562.9981 218.9954,-274.9931 380.9981,-594.9958 427.9981,-845.9912 7,-34.9977 15.0029,-63.999 18.0029,-63.999 8,0 60.0042,243.9948 82.0019,384.9902 25,161.9977 34.9968,507.0056 18.9991,656.001 -48,435.9908 -186.003,812.0092 -435.9961,1185 -52,76.9977 -94.9951,146.0013 -94.9951,153.999 0,7 -8.0069,22.0069 -17.0069,32.0069 -17,19 -15.9951,18.9931 10.0049,12.9931 24,-5.9977 26.9971,-4.0016 26.9971,15.9961 0,13 7,33.0079 15,43.0079 39.9977,52.9977 -13.0069,483.998 -62.0069,502.998 -24.9977,10 -189.997,-167.9964 -176.997,-188.9941 5,-8 1.0097,-9.0098 -9.9903,-5.0098 -10,4 -20.0019,7.0019 -22.0019,7.0019 -2,0 -3.999,7.0023 -3.999,15 0,9 -6.004,25.9981 -14.004,37.9981 -7.9977,12 -21.9983,59.0078 -30.996,103.0078 -10,45 -20.0088,85.9961 -24.0088,90.9961 -3,5 -70.9984,50.0049 -150.9961,100.0049 -79.9999,49.9977 -158.0049,102.001 -175.0049,116.001 -17,13.9977 -50.0052,26.9961 -78.0029,30.9961 -64,9.9977 -209.0004,84.0003 -277.9981,142.998 -127.9977,107.9977 -213.9964,251.0082 -248.9941,411.0059 -6,25.9977 -12.9961,54.9951 -15.9961,64.9951 -3,9 -1.001,17.0068 3.999,17.0068 5,0 13.9912,-26.0117 20.9912,-57.0117 58,-262.9931 298.0134,-513.9883 534.0088,-557.9883 l 37.002,-7.0019 v 41.997 c 0,53 25.9951,154.9984 49.9951,195.9961 l 18.0029,32.0069 -107.0068,46.9921 c -203.9954,92 -319.9945,168.0014 -391.9922,258.9991 -76.9977,95.9977 -103.0013,166.0046 -153.999,405 -19,90.9977 -42.0098,190.0049 -50.0098,220.0049 -8,29.9977 -11.9942,58.0029 -8.9942,63.0029 26,40.9977 65.9942,-65.0154 113.9942,-301.0108 53.9977,-268.9931 118.0026,-374.9964 292.998,-488.9941 85.9977,-54.9977 341.003,-172.002 378.003,-172.002 13.9977,0 72.0088,-15.9951 129.0088,-34.9951 56.9977,-19 104.9921,-34.9951 106.9921,-34.9951 8,0 1.9981,460.9909 -7.0019,580.9863 -22,285.9954 -46.9916,361.0173 -163.9893,488.0127 -110.9977,119.9977 -115.0019,133.003 -127.0019,390.9961 -9,223.9954 -25.0098,333.9994 -65.0098,461.9971 -96.9977,306.9931 -302.002,499.9964 -634.9951,593.9941 -104.9977,30 -107.0029,30.0062 -93.0029,44.0039 13,13 132.0042,-18.0039 232.0019,-59.0039 323.9931,-130.9954 517.0069,-395.003 572.0069,-780.9961 5.9977,-40.9977 14.9951,-164.9974 19.9951,-274.9951 6,-146.9954 13.0049,-210.0078 25.0049,-238.0078 7.9977,-21 49,-73.9954 90,-117.9931 40.9977,-44 83.999,-96.9971 93.999,-116.9971 57.9977,-113.9977 80.9892,-289.0112 88.9892,-682.002 l 7.002,-304.9951 125.0098,-31.0107 c 177.9954,-45 238.0032,-52.9981 296.0009,-37.9981 60,15 74.9932,35.0111 117.9932,159.0088 53.9977,154.9977 52.9948,144.9902 11.9971,144.9902 -86.9977,0 -201.003,70.0111 -258.003,159.0088 -40.9977,65 -34.998,75.9909 7.002,12.9932 59.9977,-87.9977 167.013,-151.9922 256.0107,-151.9922 30,0 37.9932,3.9981 42.9932,22.9981 114.9977,411.9885 176.001,816.0062 176.001,1166.997 0,134.9977 -12.0049,333.003 -25.0049,408.003 l -5.9912,31.9921 h -87.0117 c -173.9977,0 -289.9994,34.0092 -371.9971,107.0069 -43,38.9977 -63.0033,70.9938 -131.001,208.9892 -113.9977,234.9954 -199.0036,342.0111 -363.999,459.0088 -131.9977,93.9977 -356.9965,196.001 -488.9942,221.001 -19.9977,3 -35.0068,9.001 -32.0068,11.001 8,8 155.0082,-27.0062 246.0059,-59.0039 240.9931,-84.9977 443.0072,-235.0085 565.0049,-419.0039 26.9977,-39 71.9993,-126.0033 101.997,-191.001 66,-146.9977 98.9903,-196.9971 159.9903,-236.9971 57.9977,-38.9977 121.012,-57.9912 215.0097,-65.9912 40,-3 97.9903,-8.001 129.9903,-11.001 l 56.0009,-5.0097 -19.9951,93.0029 c -55.9977,257.9931 -168.9994,471.0124 -341.9971,643.0078 -211.9931,210.9954 -484.0062,336.9893 -836.997,388.9893 -65.5,10 -167.5004,15 -268.6231,15 z m -36.3867,-139.9951 c 11,1 17.0078,-1.9952 13.0078,-4.9952 -3,-3 -11.999,-4.0107 -18.999,-1.0107 -8,3 -5.0088,6.0059 5.9912,6.0059 z m -453.2519,-179.6192 c 13.9977,0.375 29.7519,-4.3848 48.2519,-14.3848 39,-19.9977 58.001,-66.9954 41.001,-102.9931 l -13.9893,-26.9971 -6.0058,41.9971 c -3,23 -11.9991,47.9971 -18.9991,56.9971 -15.9977,18.9977 -75.999,31.9951 -93.999,19.9951 -7,-5 -4.0088,-0.9912 5.9912,9.0088 11.5,10.4977 23.7491,16.0019 37.7491,16.3769 z m -26.7481,-309.375 h 33.0029 c 18,0 33.003,-3.0081 33.003,-6.0058 0,-12 50.0049,-369.0023 55.0049,-390 3.9977,-16 16.9873,-25.003 51.9873,-33.003 170.9954,-43.9977 301.0159,-188.0016 334.0136,-371.997 34,-188.9977 -80.0075,-405.0072 -258.0029,-490.0049 -183.9954,-87.9977 -438.0101,-24.9925 -553.0078,138.0029 l -33.999,48.0029 56.997,-52.998 c 31,-29 83.0111,-65.0098 114.0088,-80.0098 51,-24 70.0004,-26.9971 157.9981,-26.9971 89.9977,0 106.0049,3.004 160.0049,29.004 79.9977,39.9977 148.998,111.0039 187.998,194.0039 29,60.9977 31.9922,74.9944 31.9922,166.9921 0,93 -1.9922,104.9984 -31.9922,165.9961 -57.9977,116.9977 -176.9994,204.0059 -296.9971,216.0059 -71.9977,7 -181,-13 -240,-45 -25.9977,-15 -71.0088,-51.002 -99.0088,-82.002 -29.9977,-31.9977 -42.9921,-42.9902 -31.9921,-24.9902 55.9977,92.9977 147.9964,169.9922 233.9941,196.9922 28,9 42.9961,20.0029 45.9961,33.0029 2,11 14.001,109.0004 26.001,217.9981 z m -37.6172,-661.626 c 23.375,2.375 47.126,-0.875 76.626,-9.375 80.9977,-21.9977 145.9971,-111.012 146.9971,-200.0097 0,-75 -16.0059,-106.9942 -66.0059,-128.9942 -65.9977,-30.9977 -79.9909,-26.0068 -42.9932,12.9932 13,13 23.001,18.001 26.001,11.001 3,-9 9.9932,-8.9961 27.9932,-0.9961 47.9977,24 41.0107,134.9961 -13.9893,195.9961 -26.9977,29.9977 -30.0032,31.0039 -41.0009,14.0039 -10,-16 -10.0098,-16.0049 -5.0098,4.9951 6,19 -10e-4,25.0078 -41.001,43.0078 -35,16 -58.999,19.9961 -93.999,15.9961 -71.9977,-9 -96.9951,-23.9971 -94.9951,-56.9971 1,-16 -1.9974,-27.0049 -4.9951,-25.0049 -4,3 -11.0023,-5.0029 -15,-18.0029 -7,-21 -8.0118,-19.998 -12.0118,7.002 -3,17 1.0088,32.0019 9.0088,37.0019 7,5 8.9951,9.0088 4.9951,9.0088 -21.9977,0 18.9952,41.0013 64.9952,63.999 27.9977,14 51.0097,22 74.3847,24.375 z m 1681.084,-170.9179 c 0.6946,-0.1298 1.3405,-0.8719 2.0215,-1.1866 0.4111,0.018 0.8175,0.052 1.2305,0.059 1.1522,0.027 2.3046,0.034 3.457,0.029 2.125,0.33 4.2583,0.6126 6.3867,0.6446 2.3977,0.036 4.7818,-0.2287 7.1338,-1.0254 2.4971,-0.9132 4.9045,-2.0333 7.0752,-3.5889 0.1143,-0.08 0.2231,-0.1682 0.3369,-0.249 1.3119,-0.6355 2.8169,-0.8132 4.0283,-1.6699 2.5707,-1.8447 5.0157,-3.8565 7.3389,-6.0059 1.7423,-1.6119 3.2126,-3.2351 4.4971,-4.8486 0.6477,-0.5857 1.2815,-1.1908 1.9775,-1.7139 1.6967,-1.425 3.0017,-2.9252 3.9697,-4.0137 1.1737,-1.367 2.2364,-2.83 3.2666,-4.3066 1.0913,-1.5245 2.0726,-3.1335 3.1202,-4.6875 1.2592,-1.8714 2.3783,-3.8154 3.5742,-5.7276 1.4925,-2.4149 2.7841,-4.9479 3.8965,-7.5585 0.6617,-1.3542 1.2819,-2.7209 1.9189,-4.087 0.9572,-2.1526 1.9847,-4.2769 3.0322,-6.3867 1.1953,-2.5117 2.2846,-5.0651 3.3545,-7.6318 0.7231,-1.8013 1.5698,-3.5529 2.3438,-5.332 0.8405,-2.1526 1.7494,-4.2849 2.6074,-6.4307 0.6493,-1.6078 1.2789,-3.211 1.9629,-4.8047 0.9195,-2.114 1.6829,-4.2918 2.4609,-6.46 0.8112,-2.1904 1.6158,-4.3866 2.3438,-6.6064 0.8568,-2.681 1.7229,-5.3547 2.4609,-8.0713 0.8497,-3.6379 1.4114,-7.3382 1.8604,-11.0449 0.33,-2.8775 0.4925,-5.764 0.6005,-8.6572 0.024,-1.6234 0.1976,-3.2387 0.3956,-4.8487 0.287,-1.7412 0.5795,-3.4865 0.9375,-5.2148 0.311,-1.6474 0.6999,-3.2867 1.1279,-4.9072 0.5618,-1.6915 1.1628,-3.358 1.7138,-5.0538 0.7225,-2.0147 1.2314,-4.1086 1.8604,-6.1523 0.7739,-2.4021 1.3033,-4.8627 1.9043,-7.3096 0.5316,-2.2473 0.8934,-4.5284 1.3184,-6.7968 0.3464,-2.0818 0.7756,-4.1396 1.0986,-6.2256 0.241,-2.104 0.5397,-4.2073 0.7617,-6.3135 0.149,-2.27 0.3402,-4.524 0.6152,-6.7822 0.326,-2.6533 0.6452,-5.313 0.9522,-7.9688 0.3705,-3.0756 0.7497,-6.1411 1.0107,-9.2285 0.171,-3.0643 0.4173,-6.1366 0.6153,-9.1992 0.113,-2.1209 0.3666,-4.2277 0.5566,-6.3428 0.02,-0.7254 0.053,-1.443 0.073,-2.168 0.2554,-7.6116 -1.5956,-9.9534 -4.5263,-9.5068 -0.1552,-1.3335 1.2324,-8.7138 0.8642,-9.082 -3,-3 -30.0039,-1.9932 -59.0039,2.0068 -1.6913,0.2631 0.4513,0.3511 -1.1279,0.6006 -2.1172,-0.7664 -4.2648,-1.238 -6.6797,-1.4648 -2.7492,-0.202 -5.445,0.2651 -8.1445,0.7031 -1.5761,0.157 -3.1031,0.5642 -4.6436,0.9082 -1.1127,0.15 -2.2382,0.2159 -3.3545,0.3369 -2.4947,0.2695 -4.0192,1.3235 -4.6728,2.5488 -3.1414,0.4872 -6.2747,0.9945 -9.4043,1.5528 -3.9389,0.7489 -7.8912,1.4763 -11.8506,2.1093 -3.5003,0.5615 -6.9924,1.13 -10.5029,1.626 -2.4877,0.3084 -4.9684,0.7626 -7.3828,1.4356 -2.9985,0.8769 -5.8772,2.1025 -8.8037,3.1787 -2.3428,0.8579 -4.688,1.7045 -7.0459,2.5195 -0.6539,0.241 -1.3168,0.4431 -1.9776,0.6592 -12.88,2.679 -15.0967,4.3229 -28.4033,5.2734 -29,2 -64.0052,7.001 -78.0029,11.001 l -26.001,7.0019 45,78.003 c 32.1364,54.5343 60.7215,79.9768 88.1543,93.9404 2.625,2.6705 5.426,5.1458 8.6572,7.1191 3.4246,2.0449 6.9676,3.9087 10.752,5.2002 0.3207,0.1823 0.6341,0.3784 0.9668,0.542 2.5949,1.2748 5.3589,2.1413 8.1152,2.9883 3.2079,0.9258 6.4398,1.7572 9.6973,2.4902 0.1121,0.022 0.2248,0.037 0.3369,0.059 1.8501,-0.1487 3.9518,2.4666 5.7861,2.1241 z M 4529.9958,7245.9935 c 0,8 8.0081,3.0069 21.0058,-12.9931 13,-16 11.9971,-16.999 -3.0029,-3.999 -10,6.9977 -18.0029,14.9921 -18.0029,16.9921 z m 170.2588,-916.4941 c 5.5,-2.25 11.751,-10.0039 14.751,-21.5039 55.9977,-252.9954 128.9912,-486.0023 185.9912,-600 27.9977,-55 28.0029,-66.9951 3.0029,-49.9951 -38,24 -125.9932,269 -177.9932,492.9931 -20,86 -36.0058,161.0069 -36.0058,167.0069 0,10.5 4.7539,13.749 10.2539,11.499 z M 5826.9977,5297.0043 c 1,-2 11.9981,-47.001 22.9981,-101.001 11,-53.9977 20.0098,-108 20.0098,-120 0,-16 8.9944,-23.9961 31.9921,-30.9961 44,-13 78.003,-66.013 78.003,-121.0107 0,-56 -8.0069,-73.9893 -32.0069,-73.9893 -17.9977,0 -17.999,0.9961 -3.999,15.9961 47,46 -10.9932,148.9981 -87.9932,157.9981 -20.9977,2.9977 -39.997,6.9941 -41.997,8.9941 -9,9 8.998,37.0019 22.998,37.0019 16,0 13.9997,12.0079 -22.998,103.0079 -22,55.9977 -22.002,59.9944 -7.002,91.9921 9,19 17.9951,33.0069 19.9951,32.0069 z m -855.9961,-37.002 c 5,0 8.9942,-4.0049 8.9942,-10.0049 0,-4.9977 -6.9961,-9.9902 -15.9961,-9.9902 -8,0 -11.9941,4.9925 -8.9941,9.9902 2.9977,6 9.9983,10.0049 15.996,10.0049 z m 1137.9932,-45 c 5,-2 15.0088,-30.0068 24.0088,-62.0068 21,-75.9977 35.9971,-172.9981 26.9971,-172.9981 -5,0 -16.0049,33.0079 -25.0049,73.0079 -19,78.9977 -31,106.9921 -45,106.9921 -5,0 -35.9925,-25.0032 -69.9902,-56.0009 -33,-31 -63.0059,-54.002 -66.0059,-52.002 -14,14 137.9951,174.0078 154.9951,163.0078 z m -1108.9892,-48.0029 c 0,7 38.9983,-16.9932 45.996,-27.9932 3,-6 -4.9951,-3.0065 -19.9951,5.9912 -14,10 -26.0009,19.002 -26.0009,22.002 z m 131.997,-63.0029 c 4,-3 7.9981,-9 7.9981,-15 0,-5 -3.9981,-8.9942 -7.9981,-8.9942 -5,0 -9.0088,7 -9.0088,15 0,8 4.0088,11.9942 9.0088,8.9942 z m 29.0039,-20.9912 c 7,-7 9.9873,-15.003 6.9873,-18.003 -3,-3 -8.997,1.9971 -11.997,11.9971 -6,14 -4.9903,15.0036 5.0097,6.0059 z m 800.9912,-333.9991 c 10,1 39.0111,-38.0032 84.0088,-116.0009 323.9931,-556.9885 484.9991,-1129.0158 483.9991,-1717.002 0,-141.9977 -11.0023,-173.0016 -30,-89.0039 -15,69.9977 -88.004,289.0101 -119.004,358.0078 -11.9977,28 -38.0009,127.9994 -56.0009,221.9971 -69,344.9908 -149.0007,573.0098 -315.9961,903.0029 -67,132.9977 -171.0108,314.9971 -211.0108,371.9971 -7,9 -8.9951,19.9941 -4.9951,23.9941 7,7 141.0013,41.0078 168.999,43.0078 z m -187.998,-72.0117 c 5,-2 41.0013,-56.9883 78.999,-122.9883 158.9977,-271.9931 295.0033,-571.0036 371.001,-813.999 30,-96.9977 97.0059,-366.0078 96.0059,-388.0078 0,-4 -42.003,74.0003 -93.003,172.998 -171.9954,332.9931 -392.0134,651.004 -654.0088,941.9971 -45.9977,50 -82.998,93.0059 -82.998,96.0059 0,9 45.001,-5.9942 71.001,-23.9942 l 26.0009,-18.0029 63.9991,52.9981 c 34.9977,28.9977 75.0078,64.9951 88.0078,79.9951 14,14 28.9951,24.998 34.9951,22.998 z" />
      <path
         d="m 6070,4345 c -26,-31 24,-90 56,-64 17,14 18,51 2,67 -16,16 -43,15 -58,-3 z"
         id="path70" />
      <path
         d="m 6300,3760 c -8,-14 -8,-26 0,-41 10,-17 14,-18 28,-7 12,10 14,10 8,1 -4,-8 -2,-13 8,-13 20,0 30,35 16,60 -14,26 -46,26 -60,0 z"
         id="path72" />
      <path
         d="m 4220,5698 c -6,-29 -14,-60 -16,-69 -3,-10 8,-21 32,-32 19,-10 33,-13 30,-8 -3,5 6,12 19,15 14,4 23,11 20,16 -4,6 1,7 11,3 14,-5 16,-3 11,11 -5,13 -3,17 6,13 7,-3 23,0 35,7 21,11 18,14 -52,54 -40,23 -76,42 -79,42 -3,0 -10,-24 -17,-52 z"
         id="path74" />
      <path
         d="m 4474,5595 c -3,-8 -2,-20 2,-27 5,-8 1,-8 -11,2 -17,14 -18,13 -12,-2 6,-16 -3,-23 -25,-19 -4,0 -4,-7 -1,-16 4,-10 2,-14 -4,-10 -5,3 -10,0 -10,-7 0,-8 36,-33 80,-56 44,-24 77,-38 73,-32 -4,6 2,17 14,24 11,7 20,19 20,26 0,7 7,15 15,18 8,4 15,10 15,14 0,14 -111,81 -122,74 -6,-4 -8,-3 -5,3 4,6 0,14 -8,17 -9,3 -18,-1 -21,-9 z"
         id="path76" />
      <path
         d="m 4777,5410 c 9,-10 10,-17 2,-27 -8,-9 -8,-13 -1,-13 6,0 14,5 17,10 4,6 11,7 17,4 15,-9 -30,-28 -58,-25 -43,4 -35,-27 14,-55 26,-15 58,-34 72,-43 13,-9 21,-11 18,-6 -3,6 0,16 8,23 8,7 14,8 14,2 0,-16 17,-12 24,6 4,10 2,13 -7,8 -9,-6 -9,-4 1,8 10,13 7,19 -20,40 -76,57 -112,81 -101,68 z m -22,-70 c -3,-5 -12,-10 -18,-10 -7,0 -6,4 3,10 19,12 23,12 15,0 z m 102,-42 c -3,-8 -6,-5 -6,6 -1,11 2,17 5,13 3,-3 4,-12 1,-19 z m -50,6 c -3,-3 -12,-4 -19,-1 -8,3 -5,6 6,6 11,1 17,-2 13,-5 z"
         id="path78" />
      <path
         d="m 3944,5302 c -55,-76 -313,-405 -483,-617 -204,-254 -337,-436 -398,-549 -137,-249 -176,-346 -278,-689 l -26,-89 120,-160 c 242,-323 501,-568 841,-795 359,-239 807,-413 1205,-468 521,-71 1025,-10 1500,182 115,47 119,50 127,83 8,42 -18,153 -69,290 -211,566 -773,1154 -1531,1606 -68,40 -129,75 -135,77 -6,2 32,85 87,191 54,103 95,190 92,194 -4,3 -116,12 -249,20 -133,8 -243,17 -245,20 -10,27 -209,358 -268,447 -81,122 -223,307 -239,311 -5,2 -29,-23 -51,-54 z m -104,-783 c 154,-24 311,-101 434,-211 170,-152 314,-439 362,-723 19,-115 28,-352 16,-430 l -10,-60 -1,65 c -3,146 -49,385 -103,540 -40,112 -124,278 -186,365 -103,145 -270,285 -418,351 -135,60 -313,84 -454,62 l -45,-7 40,15 c 104,40 245,53 365,33 z M 5440,3465 c 129,-157 137,-164 171,-165 20,0 51,-3 68,-6 l 32,-7 -7,-66 c -10,-101 -23,-118 -23,-33 -1,39 -4,72 -8,72 -5,0 -100,7 -213,14 -113,8 -263,17 -335,21 -71,3 -142,8 -157,11 -45,9 -32,24 20,24 h 47 l 125,150 c 69,82 130,149 135,149 6,0 71,-74 145,-164 z"
         id="path80" />
      <path
         d="m 5305,3532 c 3,-3 -1,-12 -8,-20 -10,-13 -9,-15 8,-9 17,6 17,4 -4,-13 -13,-11 -18,-20 -12,-20 7,0 9,-5 6,-11 -5,-7 -13,-5 -24,5 -10,9 -23,16 -29,16 -16,0 -15,10 5,32 9,10 14,18 11,18 -4,0 -29,-27 -58,-60 -46,-53 -50,-61 -37,-75 9,-8 20,-15 25,-15 6,0 9,-11 8,-24 -3,-24 0,-25 71,-31 79,-8 176,-3 208,10 18,8 18,7 6,-8 -9,-11 -10,-17 -2,-17 6,0 11,5 11,11 0,8 6,7 17,-2 20,-16 -5,16 -104,133 -39,47 -78,85 -87,85 -9,0 -14,-3 -11,-5 z"
         id="path82" />
      <path
         d="m 4870,5248 c 8,-9 100,-78 103,-78 2,0 4,7 4,15 0,8 -4,12 -9,9 -4,-3 -23,6 -40,19 -34,24 -67,45 -58,35 z"
         id="path84" />
    </g>
    <path
       style="fill:#000000;stroke-width:0.75"
       d="M 537.30644,529.25628 504.26365,506.01291"
       id="path740" />
    <path
       style="fill:#000000;stroke-width:0.75"
       d="m 475.33352,484.90241 13.34123,12.02466 -7.09197,-14.46333 z"
       id="path798" />
    <path
       style="fill:#000000;stroke-width:0.75"
       d="m 540.71296,531.70175 -25.86258,-18.76076 -10.70174,-6.83196 -15.1539,-9.26303 -8.50023,-4.67142 -8.43513,-4.19143 -13.28167,-7.57898 -8.30919,-4.10388 7.79174,-10.55688 25.2956,14.34171 9.83755,7.01969 16.70616,11.42119 17.25888,13.84068 10.96757,9.02918 6.19863,6.24686 0.0404,3.2861 z"
       id="path800" />
    <path
       style="fill:#000000;stroke-width:0.75"
       d="m 576.62356,704.19922 -40.34655,-1.84659 c 0,0 -2.67618,0.96125 -1.82226,0.10734 0.85392,-0.85392 16.63665,-20.55336 16.63665,-20.55336 l 3.10668,-3.57837 z"
       id="path802" />
    <path
       style="fill:#000000;stroke-width:0.75"
       d="m 486.71023,316.97275 c 0,0 -9.87902,-1.06189 -10.2479,-1.75873 -0.36888,-0.69684 -0.43498,-5.92303 -0.43498,-5.92303 l 4.85831,-1.37881 z"
       id="path860" />
    <path
       style="fill:#000000;stroke-width:0.75"
       d="m 497.70991,289.03352 2.52659,1.43662 1.92346,3.31132 -3.09438,2.23444 -3.81339,-3.45044 z"
       id="path862" />
    <path
       style="fill:#000000;stroke-width:0.75"
       d="m 497.30752,288.22594 1.31829,1.01869 1.81606,1.28962 -1.06114,1.04798 c 0,0 -2.42136,-0.96918 -2.55679,-1.21535 -0.13544,-0.24618 0.48358,-2.14094 0.48358,-2.14094 z"
       id="path864" />
    <path
       style="fill:#000000;stroke-width:0.75"
       d="m 500.51897,290.5332 -1.703,-1.27178 -0.93773,-0.73456 -0.83883,-0.51993 -3.45357,-0.24207 6.80168,5.48096 z"
       id="path866" />
    <path
       style="fill:#000000;stroke-width:0.75"
       d="m 473.17432,294.79099 0.9765,-3.0605 0.5146,-1.83832 0.79607,-1.42757 0.63492,-0.72615 3.5765,1.38478 c 0,0 -3.77287,11.10535 -4.19079,10.5904 -0.41791,-0.51495 -2.44477,-4.61126 -2.44477,-4.61126 z"
       id="path868" />
    <path
       style="fill:#ffffff;stroke-width:0.75"
       d="m 472.87065,288.71733 -0.25502,0.50567 -0.24047,0.52701 -0.21205,0.58227 -0.11943,0.58167 -0.19275,0.62822 -0.10809,0.65423 -0.0338,0.93363 0.1042,0.79144 0.11283,0.69681 0.13239,0.63786 0.0932,0.46034 0.35643,0.18811 1.34947,-5.64928 c 0,0 0.19244,-0.94895 0.11507,-1.00891 -0.0774,-0.0599 -1.10197,-0.52907 -1.10197,-0.52907 z"
       id="path870" />
    <path
       style="fill:#ffffff;stroke-width:0.75"
       d="m 637.69581,317.13252 3.82862,1.21337 5.58797,1.05086 6.69039,1.20463 4.296,0.58 4.03407,0.36613 3.2514,0.0695 0.71927,-0.0889 -0.35376,-2.73382 -0.30683,-1.59656 -2.20291,-2.78355 -21.25957,0.65871 z"
       id="path872" />
    <path
       style="fill:#ffffff;stroke-width:0.75"
       d="m 647.90306,302.02859 2.34312,-1.7318 1.62054,-1.06391 1.54765,-0.7729 1.70501,-0.56655 0.94932,-0.11853 1.13321,0.0521 0.9795,0.38817 0.97167,0.55632 0.50815,0.51827 1.18485,1.32817 0.89488,1.51777 1.19803,2.70705 1.01217,2.81064 0.71206,3.64964 0.59426,3.79681 0.8823,6.5843 -19.87615,-4.92604 z"
       id="path874" />
    <path
       style="fill:#ffffff;stroke-width:0.75"
       d="m 596.12333,527.60222 0.97033,-1.8162 0.74962,-1.73586 -3.67856,-4.97955 -3.56117,3.52433 3.02321,5.41595 z"
       id="path876" />
    <path
       style="fill:#000000;stroke-width:0.75"
       d="m 590.17007,528.53306 -4.97762,-1.67517 -2.72903,-1.3384 -1.03612,0.76964 2.11475,5.35492 z"
       id="path878" />
    <path
       style="fill:#ffffff;stroke-width:0.75"
       d="m 569.49401,553.83386 0.45393,0.28564 0.32647,10.53703 0.15915,7.33101 0.20787,2.29824 1.02264,1.58345 1.40052,1.07307 1.30996,0.77924 0.83297,0.45404 2.37523,1.10716 0.92535,0.50221 1.14428,0.62515 1.50669,1.01554 1.66702,0.99803 2.12239,0.2898 1.99571,-1.2985 2.32786,-0.84796 -2.30605,5.23254 -7.66785,-3.44829 -4.65612,-2.84856 -5.4099,-5.60995 -4.20081,-17.92824 z"
       id="path880" />
  </g>
</svg>
