<?xml version="1.0" encoding="UTF-8" standalone="no"?>
<svg
   fill="none"
   viewBox="0 0 636 86"
   version="1.1"
   id="svg13"
   sodipodi:docname="banner.svg"
   inkscape:version="1.2.2 (b0a8486541, 2022-12-01)"
   xmlns:inkscape="http://www.inkscape.org/namespaces/inkscape"
   xmlns:sodipodi="http://sodipodi.sourceforge.net/DTD/sodipodi-0.dtd"
   xmlns="http://www.w3.org/2000/svg"
   xmlns:svg="http://www.w3.org/2000/svg">
  <defs
     id="defs17" />
  <sodipodi:namedview
     id="namedview15"
     pagecolor="#ffffff"
     bordercolor="#000000"
     borderopacity="0.25"
     inkscape:showpageshadow="2"
     inkscape:pageopacity="0.0"
     inkscape:pagecheckerboard="0"
     inkscape:deskcolor="#d1d1d1"
     showgrid="false"
     inkscape:zoom="0.86164741"
     inkscape:cx="113.15533"
     inkscape:cy="88.203131"
     inkscape:window-width="1920"
     inkscape:window-height="1052"
     inkscape:window-x="0"
     inkscape:window-y="0"
     inkscape:window-maximized="1"
     inkscape:current-layer="g10" />
  <symbol
     id="default">
    <g
       clip-path="url(#clip0_56_2)"
       id="g10">
      <path
         d="m 39.274844,10.802413 c 0.09908,-0.172248 0.468755,-0.611443 0.612903,-0.784603 0.536449,-0.644652 1.018159,-1.135485 1.66792,-1.668102 1.702953,-1.3958635 3.710988,-2.3136665 5.838905,-2.8455537 1.176903,-0.2943174 2.345414,-0.4718573 3.558082,-0.4859065 0,0 0.273699,-0.018247 0.273699,-0.018247 0,0 1.623945,0 1.623945,0 0,0 0.182466,0.017512 0.182466,0.017512 0,0 0.273698,0 0.273698,0 0,0 0.2737,0.018972 0.2737,0.018972 0,0 0.565643,0.034845 0.565643,0.034845 0.940429,0.064594 1.875019,0.2424973 2.791727,0.4599965 1.379441,0.3271607 2.764722,0.8055859 4.014246,1.4814397 1.935415,1.046624 3.524512,2.415299 4.806516,4.209303 0.657056,0.919445 1.207008,1.971908 1.605698,3.028932 0.321506,0.851933 0.516924,1.55844 0.711618,2.445042 0,0 0.193048,0.930574 0.193048,0.930574 0,0 -1.423232,-0.124623 -1.423232,-0.124623 -0.551232,-0.05273 -1.097902,-0.07317 -1.642194,-0.193232 -0.589728,-0.13028 -1.125999,-0.369128 -1.605697,-0.738438 C 63.013642,16.121093 62.651447,15.397616 62.342533,14.743659 61.94275,13.897383 61.469616,12.836162 60.963821,12.061412 59.469061,9.772014 57.006139,8.130917 54.437751,7.2747876 53.957501,7.1145825 53.468858,6.986127 52.978024,6.86351 52.73279,6.8022038 52.21331,6.6839635 51.974462,6.6786722 c 0.08138,0.077546 0.185385,0.088134 0.291946,0.1094788 0,0 0.456164,0.1027292 0.456164,0.1027292 0.522948,0.1306448 1.030931,0.3191319 1.532713,0.5141877 0,0 1.094794,0.4818926 1.094794,0.4818926 1.17508,0.5550605 2.121165,1.1132245 3.138412,1.9301225 1.315395,1.056478 2.150723,2.314579 2.914708,3.795288 0,0 0.675306,1.350247 0.675306,1.350247 0.370405,0.740629 0.679503,1.338387 1.354809,1.856955 1.365206,1.048083 3.219789,1.007758 4.853589,1.007758 0,0 0.05328,0.291945 0.05328,0.291945 0,0 0.08959,0.656877 0.08959,0.656877 0,0 0.09598,1.222521 0.09598,1.222521 0,0 0.03483,0.52915 0.03483,0.52915 0,0 0.01826,0.437919 0.01826,0.437919 0,0 0.019,0.291944 0.019,0.291944 0,0 0,0.273699 0,0.273699 0,0 0.01751,0.218959 0.01751,0.218959 0,0 0,0.583891 0,0.583891 0,0 0.01731,0.218959 0.01731,0.218959 0,0 0,0.255452 0,0.255452 0,0 -0.01731,0.273698 -0.01731,0.273698 0,0 0,0.620385 0,0.620385 0,0 -0.01826,0.310191 -0.01826,0.310191 0,0 -0.01826,0.547397 -0.01826,0.547397 0,0 -0.01826,0.328439 -0.01826,0.328439 0,0 -0.03483,0.456165 -0.03483,0.456165 0,0 -0.144695,1.623944 -0.144695,1.623944 -0.170427,1.594387 -0.421316,3.193334 -0.754861,4.762358 -0.219875,1.034033 -0.459449,2.061133 -0.728222,3.083671 0,0 -0.18703,0.69337 -0.18703,0.69337 -0.02862,0.110392 -0.05583,0.244139 -0.158198,0.310192 -0.114588,0.07371 -0.354346,0.0562 -0.491927,0.05474 -0.21513,-0.0026 -0.506707,-0.07772 -0.71162,-0.145961 -0.619106,-0.206552 -1.220149,-0.611442 -1.657334,-1.094794 -0.09433,-0.104189 -0.18703,-0.214216 -0.268956,-0.328439 -0.143235,-0.199435 -0.255634,-0.385368 -0.427516,-0.565644 0.03741,0.199435 0.330081,0.632791 0.458535,0.80285 0.427154,0.565096 1.08987,1.069066 1.749301,1.332 0.226438,0.09032 0.578418,0.197792 0.821097,0.200712 0.104915,0.0011 0.357084,-0.02445 0.424416,0.06021 0.06259,0.07846 -0.0025,0.287748 -0.02828,0.377704 0,0 -0.324055,0.967068 -0.324055,0.967068 -0.141595,0.387192 -0.28757,0.858867 -0.468939,1.222521 -0.09853,0.197428 -0.195057,0.379164 -0.369495,0.52313 -0.255449,0.211112 -0.803398,0.315666 -1.131288,0.316212 -0.509443,7.45e-4 -1.018523,-0.101633 -1.514465,-0.211295 0,0 -1.642192,-0.397593 -1.642192,-0.397593 0,0 -0.656876,-0.15984 -0.656876,-0.15984 -0.05729,-0.01423 -0.224068,-0.04617 -0.260196,-0.08375 -0.03813,-0.03978 -0.03175,-0.117691 -0.03175,-0.169328 0,0 0,-0.529151 0,-0.529151 0,0 -0.01825,-0.273698 -0.01825,-0.273698 0,0 -0.01825,-1.277261 -0.01825,-1.277261 0,0 -0.01825,-0.310192 -0.01825,-0.310192 0,0 0,-0.529151 0,-0.529151 0,0 -0.01825,-0.255452 -0.01825,-0.255452 0,0 0,-0.474411 0,-0.474411 0,0 -0.01825,-0.310191 -0.01825,-0.310191 0,0 -0.03649,-1.332001 -0.03649,-1.332001 0,0 -0.01751,-0.182466 -0.01751,-0.182466 0,0 0,-0.164219 0,-0.164219 0,0 -0.01897,-0.328438 -0.01897,-0.328438 0,0 -0.01661,-0.200712 -0.01661,-0.200712 0,0 -0.02153,-0.437919 -0.02153,-0.437919 0,0 -0.03321,-0.346685 -0.03321,-0.346685 -0.07225,-1.049908 -0.237753,-2.3591 -0.618559,-3.339123 -0.05036,-0.129733 -0.168598,-0.395586 -0.237389,-0.510904 -0.268611,-0.449776 -0.95596,-1.165224 -1.319432,-1.58745 -0.181006,-0.210383 -0.481892,-0.583526 -0.612356,-0.821096 -0.162941,-0.296872 -0.192318,-0.636441 -0.227534,-0.967069 0,0 -0.05346,-0.656876 -0.05346,-0.656876 0,0 -0.01661,-0.182466 -0.01661,-0.182466 0,0 -0.01825,-0.456165 -0.01825,-0.456165 0,0 -0.01825,-0.255453 -0.01825,-0.255453 0,0 -0.01825,-0.510903 -0.01825,-0.510903 0,0 -0.01825,-0.255452 -0.01825,-0.255452 0,0 -0.01825,-0.346685 -0.01825,-0.346685 0,0 -0.01825,-0.237206 -0.01825,-0.237206 0,0 0,-0.164219 0,-0.164219 0,0 -0.03485,-0.401425 -0.03485,-0.401425 0,0 -0.11623,-1.332 -0.11623,-1.332 -0.16203,-1.230367 -0.522765,-2.55817 -1.040603,-3.685809 -0.680361,-1.481986 -1.721692,-2.793368 -3.041468,-3.756057 -0.768546,-0.560719 -1.52888,-0.9501 -2.408548,-1.301894 -0.524589,-0.209836 -1.255365,-0.453793 -1.806411,-0.565644 -0.09744,-0.01971 -0.367121,-0.06952 -0.456164,-0.06222 -0.05583,0.0046 -0.133383,0.0303 -0.158016,0.08576 -0.02828,0.06386 0.03686,0.09634 0.08503,0.117509 0,0 0.364932,0.120609 0.364932,0.120609 0.550682,0.158381 1.104101,0.312017 1.642192,0.509263 1.350246,0.495212 2.621486,1.228907 3.649315,2.243599 0,0 0.165861,0.182284 0.165861,0.182284 0.614911,0.66016 1.104284,1.345137 1.508263,2.153095 0.701764,1.403527 1.063959,2.88077 1.230002,4.433919 0,0 0.07171,0.821096 0.07171,0.821096 0,0 0.03485,0.52915 0.03485,0.52915 0,0 0.01825,0.237205 0.01825,0.237205 0,0 0.01825,0.510905 0.01825,0.510905 0,0 0.01751,0.182466 0.01751,0.182466 0,0 0,0.218958 0,0.218958 0,0 0.01897,0.237206 0.01897,0.237206 0,0 0.01825,0.419671 0.01825,0.419671 0,0 0.01661,0.21896 0.01661,0.21896 0,0 0.03503,0.510904 0.03503,0.510904 0.0562,0.580058 0.107654,1.099356 0.391936,1.623945 0.280997,0.518568 0.858866,1.053741 1.245329,1.514466 0.50616,0.603233 0.784238,1.076184 1.023632,1.824658 0.235929,0.738439 0.317856,1.601502 0.392485,2.372055 0,0 0.07153,0.85759 0.07153,0.85759 0,0 0.0166,0.182465 0.0166,0.182465 0,0 0.01825,0.456164 0.01825,0.456164 0,0 0.01825,0.273699 0.01825,0.273699 0,0 0,0.273699 0,0.273699 0,0 0.01825,0.291945 0.01825,0.291945 0,0 0,0.401425 0,0.401425 0,0 0.01825,0.291945 0.01825,0.291945 0,0 0,0.547397 0,0.547397 0,0 0.01825,0.310192 0.01825,0.310192 0,0 0,1.094795 0,1.094795 0,0 0.01825,0.310192 0.01825,0.310192 0,0 0,1.204274 0,1.204274 0,0 -0.01825,0.310192 -0.01825,0.310192 0,0 0,0.273699 0,0.273699 0,0 -0.01825,0.218958 -0.01825,0.218958 0,0 -0.693369,-0.218958 -0.693369,-0.218958 0,0 -1.277261,-0.406717 -1.277261,-0.406717 0,0 -0.510904,-0.12955 -0.510904,-0.12955 -0.197041,-0.03723 -0.247219,-0.02373 -0.456143,-0.09032 -0.574767,-0.183557 -1.592379,-0.648298 -2.153096,-0.919625 -1.044251,-0.50543 -1.998912,-0.976557 -2.864713,-1.773202 0,0 -0.254722,-0.238665 -0.254722,-0.238665 -0.315118,-0.329534 -0.573855,-0.6837 -0.803397,-1.076549 -0.361647,-0.619105 -0.600859,-1.3705 -0.782596,-2.061863 0,0 -0.429524,-1.934137 -0.429524,-1.934137 0,0 -0.241038,-1.003561 -0.241038,-1.003561 -0.08959,-0.358546 -0.258735,-0.926744 -0.40562,-1.259015 -0.04635,-0.104918 -0.17754,-0.362741 -0.294501,-0.387921 -0.02736,-0.0058 -0.04908,0.0013 -0.07189,0.01606 -0.09452,0.06076 -0.07809,0.185567 -0.06331,0.280632 0,0 0.228812,1.003561 0.228812,1.003561 0.352159,1.411373 0.569294,2.860517 1.001556,4.251453 0.251985,0.81033 0.566556,1.415752 1.098078,2.08011 0.183743,0.229542 0.364384,0.435911 0.580242,0.636988 0.846641,0.7888 1.87447,1.335649 2.901205,1.849109 0,0 1.332,0.613267 1.332,0.613267 0,0 0.729863,0.312746 0.729863,0.312746 -0.02993,0.125536 -0.128455,0.268954 -0.193048,0.383178 -0.07864,0.139221 -0.142141,0.287384 -0.195786,0.437918 -0.151447,0.425145 -0.358545,1.216864 -0.359275,1.660439 0,0 0,0.529151 0,0.529151 -0.145608,-0.0031 -0.52313,-0.08302 -0.675123,-0.120975 -0.516744,-0.128456 -0.994257,-0.315301 -1.459727,-0.57495 -1.610626,-0.898644 -2.930036,-2.374792 -3.698399,-4.048185 -0.126996,-0.276619 -0.277712,-0.657607 -0.362924,-0.948822 0,0 -0.232827,-0.875836 -0.232827,-0.875836 0,0 -0.118784,-0.310192 -0.118784,-0.310192 -0.09306,0.128091 -0.03686,0.225345 0,0.364932 0,0 0.12736,0.52915 0.12736,0.52915 0.221696,0.912147 0.52167,1.737439 1.025276,2.536274 0.525501,0.833869 1.148622,1.556069 1.928298,2.16368 0.432079,0.336649 1.194603,0.774932 1.696931,1.005569 0.303076,0.139221 0.610167,0.269319 0.930577,0.362924 0.374784,0.109297 0.491379,0.06496 0.894082,0.267677 0,0 1.076548,0.72439 1.076548,0.72439 0,0 1.167781,0.748109 1.167781,0.748109 0,0 1.259013,0.809966 1.259013,0.809966 0.07828,0.05328 0.268225,0.181735 0.319133,0.249978 0.06605,0.08849 0.157651,0.50689 0.1894,0.637901 0.111304,0.457989 0.221696,1.12782 0.442845,1.532712 0.05091,0.09287 0.09798,0.187574 0.119879,0.291946 0.01277,0.06058 0.02025,0.187938 0.05529,0.231731 0.04306,0.054 0.296141,0.126449 0.369675,0.133199 -0.01861,-0.04033 -0.03175,-0.06313 -0.03285,-0.109479 -0.0031,-0.133747 0.174254,-0.367669 0.254174,-0.474411 0.338109,-0.451603 0.731141,-0.861056 1.147162,-1.240767 0.10364,-0.0947 0.277531,-0.24195 0.401425,-0.302893 0.08101,-0.04051 0.158563,-0.06095 0.235381,0 0.09269,0.07481 0.169328,0.280997 0.208741,0.394126 0.120245,0.343948 0.162394,0.564367 0.238665,0.912329 0.221148,1.008123 0.340664,2.30728 0.339022,3.339124 -3.66e-4,0.193961 -0.03704,0.606698 -0.101269,0.784602 -0.04397,0.122253 -0.121887,0.192684 -0.176992,0.364932 -0.02044,0.06331 -0.04361,0.171153 -0.04853,0.237206 -0.0049,0.06551 0.0055,0.139403 -0.06058,0.179181 -0.07864,0.04781 -0.357998,-0.04233 -0.470214,-0.05145 0.08594,0.114954 0.18867,0.219689 0.257277,0.346685 0.0666,0.123347 0.0239,0.139586 0.159839,0.383178 0,0 0.61692,0.985315 0.61692,0.985315 0.911595,1.367399 1.765537,2.733155 2.482811,4.21496 1.171613,2.420409 1.908045,4.746847 2.384459,7.389864 0,0 0.234653,1.569206 0.234653,1.569206 0,0 0.08777,0.912329 0.08777,0.912329 0,0 0.01662,0.182466 0.01662,0.182466 0,0 0.01826,0.383177 0.01826,0.383177 0,0 0,0.328439 0,0.328439 0,0 0.01825,0.291946 0.01825,0.291946 0,0 0,1.131287 0,1.131287 0,0 -0.01825,0.273699 -0.01825,0.273699 0,0 0,0.510904 0,0.510904 0,0 -0.01826,0.310192 -0.01826,0.310192 0,0 -0.01826,0.602137 -0.01826,0.602137 0,0 -0.01751,0.218959 -0.01751,0.218959 0,0 0,0.145972 0,0.145972 0,0 -0.019,0.310191 -0.019,0.310191 0,0 -0.01662,0.182465 -0.01662,0.182465 0,0 -0.05328,0.711618 -0.05328,0.711618 0,0 -0.09944,0.967067 -0.09944,0.967067 -0.110208,0.836972 -0.279901,1.673397 -0.451056,2.499782 0,0 -0.294316,1.350249 -0.294316,1.350249 -0.04797,0.192135 -0.113313,0.508897 -0.19834,0.675122 -0.08047,-0.07627 -0.09908,-0.187208 -0.125353,-0.291945 0,0 -0.122803,-0.565643 -0.122803,-0.565643 -0.12444,-0.618198 -0.299609,-1.229093 -0.506159,-1.82466 -0.629687,-1.814257 -1.559355,-3.552242 -2.5974,-5.16378 -0.460361,-0.714718 -1.169971,-1.70423 -1.710435,-2.353808 -0.386097,-0.463828 -0.79847,-0.914337 -1.215404,-1.350247 0,0 -0.290486,-0.291946 -0.290486,-0.291946 0,0 -1.551689,-1.568475 -1.551689,-1.568475 0,0 -0.164219,-0.147433 -0.164219,-0.147433 0,0 -0.364932,-0.363472 -0.364932,-0.363472 -0.747198,-0.714718 -1.508627,-1.423597 -2.299069,-2.091423 -0.906672,-0.765808 -2.331182,-1.807505 -3.320877,-2.489562 0,0 -1.623945,-1.100087 -1.623945,-1.100087 0,0 -1.514466,-0.950829 -1.514466,-0.950829 0,0 -0.857589,-0.529151 -0.857589,-0.529151 0,0 -0.474411,-0.284282 -0.474411,-0.284282 0.02591,-0.08193 0.09926,-0.207645 0.141411,-0.291944 0,0 0.346685,-0.675124 0.346685,-0.675124 0,0 1.085671,-2.134849 1.085671,-2.134849 0.226805,-0.453793 0.484994,-0.912877 0.615822,-1.404987 -0.127543,-0.04781 -0.450508,-0.0489 -0.602137,-0.05547 0,0 -0.437918,-0.03412 -0.437918,-0.03412 0,0 -0.437918,-0.02153 -0.437918,-0.02153 0,0 -1.22252,-0.08795 -1.22252,-0.08795 0,0 -0.729864,-0.03978 -0.729864,-0.03978 0,0 -0.492657,-0.03485 -0.492657,-0.03485 0,0 -0.583891,-0.03649 -0.583891,-0.03649 0,0 -0.401425,-0.01825 -0.401425,-0.01825 0,0 -0.237205,-0.01825 -0.237205,-0.01825 0,0 -0.529151,-0.01825 -0.529151,-0.01825 -0.05747,0 -0.108202,0.0018 -0.164219,-0.01441 -0.202719,-0.05857 -0.334095,-0.319316 -0.42405,-0.496489 -0.250891,-0.493206 -0.527509,-0.973273 -0.822556,-1.44148 -0.948275,-1.50443 -2.05347,-3.031487 -3.191874,-4.397426 -0.33738,-0.404891 -0.686071,-0.80887 -1.053922,-1.186027 0,0 -0.515831,-0.529151 -0.515831,-0.529151 0,0 -0.165679,-0.182466 -0.165679,-0.182466 -0.0385,-0.06551 -0.0073,-0.133929 0.01186,-0.200712 0,0 0.117143,-0.419671 0.117143,-0.419671 0,0 0.397959,-1.423233 0.397959,-1.423233 0.07481,-0.222426 0.154731,-0.415292 0.428429,-0.399783 0.197246,0.01113 0.819636,0.07317 0.985316,0.130646 0.07645,0.02645 0.166226,0.09543 0.237205,0.140498 0,0 0.383178,0.230455 0.383178,0.230455 0,0 1.295506,0.730227 1.295506,0.730227 1.798201,1.078921 3.389302,2.206012 5.054303,3.476339 1.463193,1.116325 2.883689,2.30363 4.251452,3.534544 0,0 1.915891,1.77229 1.915891,1.77229 0,0 0.164219,0.147433 0.164219,0.147433 0,0 0.310192,0.30782 0.310192,0.30782 0,0 0.34632,0.33008 0.34632,0.33008 0,0 0.165497,0.200713 0.165497,0.200713 0,0 0.418759,0.437917 0.418759,0.437917 0,0 0.211112,0.202355 0.211112,0.202355 0,0 0.503606,0.582248 0.503606,0.582248 0,0 1.430715,1.623946 1.430715,1.623946 1.056294,1.250438 2.052557,2.557075 2.98149,3.904768 0.995533,1.444764 1.915161,2.945362 2.749942,4.488658 0,0 0.948824,1.806411 0.948824,1.806411 0,0 0.461819,0.839342 0.461819,0.839342 0,0 -0.188855,-0.894082 -0.188855,-0.894082 0,0 -0.433717,-1.751671 -0.433717,-1.751671 0,0 -0.436094,-1.587453 -0.436094,-1.587453 -0.640604,-2.060775 -1.584864,-4.201098 -2.549561,-6.130856 -0.451603,-0.903206 -0.936049,-1.787983 -1.438378,-2.664001 -0.195056,-0.340298 -0.697201,-1.206099 -0.917985,-1.477608 -0.02445,-0.03029 -0.05255,-0.06751 -0.09397,-0.07353 -0.04835,-0.0071 -0.108568,0.03977 -0.145243,0.06715 -0.160388,0.11915 -0.184109,0.166226 -0.313295,0.290303 0,0 -0.982213,0.868902 -0.982213,0.868902 -0.113128,0.09142 -0.378068,0.309644 -0.510903,0.349423 -0.235016,0.07043 -0.566009,-0.208012 -0.766357,-0.319133 -0.220966,-0.122618 -0.596845,-0.249979 -0.746467,-0.455253 -0.03065,-0.04216 -0.0697,-0.112033 -0.08284,-0.162577 -0.02901,-0.112763 -0.02828,-0.453792 -0.02828,-0.58389 0,0 0,-0.273699 0,-0.273699 0,0 -0.01825,-0.291945 -0.01825,-0.291945 0,0 0,-0.310192 0,-0.310192 0,0 -0.01825,-0.291945 -0.01825,-0.291945 0,0 0,-0.310192 0,-0.310192 -0.0033,-0.175532 -0.162578,-0.237935 -0.291946,-0.335189 0,0 -0.912329,-0.693371 -0.912329,-0.693371 0,0 -2.171342,-1.63763 -2.171342,-1.63763 0,0 -1.149535,-0.83989 -1.149535,-0.83989 0,0 -0.492658,-0.369858 -0.492658,-0.369858 0,0 -0.729863,-0.529151 -0.729863,-0.529151 0,0 -0.419672,-0.302528 -0.419672,-0.302528 0,0 -0.766355,-0.489009 -0.766355,-0.489009 0,0 -0.656877,-0.391024 -0.656877,-0.391024 0,0 -0.255452,-0.177356 -0.255452,-0.177356 0,0 -1.186029,-0.710157 -1.186029,-0.710157 0,0 -0.145972,-0.09087 -0.145972,-0.09087 0,0 -0.547397,-0.301251 -0.547397,-0.301251 0,0 -0.273699,-0.117143 -0.273699,-0.117143 0,0 -0.729863,-0.374603 -0.729863,-0.374603 0,0 -0.419671,-0.249613 -0.419671,-0.249613 0,0 -0.656877,-0.372777 -0.656877,-0.372777 0,0 -0.547397,-0.312016 -0.547397,-0.312016 0,0 -0.328438,-0.159294 -0.328438,-0.159294 0,0 -0.401426,-0.198522 -0.401426,-0.198522 -0.178633,-0.07645 -0.370587,-0.134477 -0.52915,-0.251803 -0.184473,-0.136485 -0.128091,-0.263116 -0.07974,-0.457441 0,0 0.173342,-0.729864 0.173342,-0.729864 0.01788,-0.07153 0.08339,-0.332817 0.134477,-0.370405 0.05583,-0.04105 0.174255,0.03777 0.228083,0.06477 0,0 0.602137,0.326614 0.602137,0.326614 0,0 0.510904,0.296871 0.510904,0.296871 0,0 0.310191,0.203449 0.310191,0.203449 0,0 1.678686,0.951559 1.678686,0.951559 0,0 0.492657,0.28045 0.492657,0.28045 0,0 0.602138,0.428612 0.602138,0.428612 0,0 0.948821,0.664177 0.948821,0.664177 0,0 1.350247,0.920539 1.350247,0.920539 0,0 0.985316,0.787339 0.985316,0.787339 0,0 0.510904,0.390843 0.510904,0.390843 0,0 1.113041,0.925648 1.113041,0.925648 0,0 0.583891,0.48244 0.583891,0.48244 0,0 0.182465,0.176261 0.182465,0.176261 0,0 0.675124,0.589913 0.675124,0.589913 0,0 1.332,1.202997 1.332,1.202997 0,0 0.784603,0.709974 0.784603,0.709974 0.130098,0.112216 0.346502,0.308002 0.492658,0.383178 -0.0024,-0.267312 -0.160935,-1.114866 -0.214397,-1.423233 0,0 -0.276802,-1.587452 -0.276802,-1.587452 0,0 -0.129185,-0.821096 -0.129185,-0.821096 0.127179,0.01989 0.345955,0.120062 0.474411,0.171518 0.04708,0.01879 0.17389,0.07591 0.218229,0.07225 0.101816,-0.0082 0.07974,-0.131193 0.113311,-0.183925 0.03686,-0.05784 0.117873,-0.06167 0.179364,-0.05821 0.193596,0.01131 0.643009,0.161482 0.821096,0.249431 0.09725,0.04781 0.21166,0.09835 0.25527,0.205092 0.01259,0.03047 0.01624,0.05875 0.01751,0.09123 0.01259,0.286653 -0.274976,0.109844 -0.491745,0.05912 -0.06605,-0.0155 -0.17462,-0.04635 -0.18721,0.05145 -0.0064,0.04872 0.02755,0.266036 0.03631,0.327344 0,0 0.121523,0.729864 0.121523,0.729864 0,0 0.244686,1.295506 0.244686,1.295506 0.05601,0.27972 0.111851,0.596298 0.224068,0.85759 0.06915,-0.169512 0.02007,-0.53864 0,-0.729864 0,0 -0.163307,-1.368493 -0.163307,-1.368493 -0.02281,-0.163854 -0.06003,-0.326613 -0.05711,-0.492658 0.0016,-0.08175 0.009,-0.136484 0.109479,-0.121157 0.06989,0.01058 0.138857,0.0635 0.200712,0.09725 0,0 0.273699,0.120793 0.273699,0.120793 0,0 0.419672,0.134659 0.419672,0.134659 0,0 0.675123,0.2841 0.675123,0.2841 0.233008,0.112763 0.790077,0.412007 1.003562,0.469667 -0.237206,-0.237023 -0.435181,-0.362012 -0.69337,-0.559258 -0.05784,-0.04415 -0.249066,-0.184473 -0.26932,-0.243774 -0.01715,-0.05091 0.0219,-0.102911 0.04471,-0.14579 0,0 0.139039,-0.291945 0.139039,-0.291945 0,0 0.244139,-0.437919 0.244139,-0.437919 0,0 0.352341,-0.729863 0.352341,-0.729863 0,0 -0.437917,-0.195056 -0.437917,-0.195056 0,0 -0.729863,-0.328438 -0.729863,-0.328438 0,0 -2.299069,-1.021991 -2.299069,-1.021991 0,0 -3.667562,-1.635076 -3.667562,-1.635076 0,0 -3.57633,-1.630879 -3.57633,-1.630879 0,0 -3.777041,-1.715178 -3.777041,-1.715178 0,0 -1.313754,-0.621479 -1.313754,-0.621479 0,0 -0.620383,-0.333 -0.620383,-0.333 0,0 0.255452,0 0.255452,0 0,0 0.273698,-0.01825 0.273698,-0.01825 0,0 0.492658,0 0.492658,0 0.137762,-7.43e-4 0.374784,-0.02956 0.492657,-0.09999 0.247789,-0.147979 0.291581,-0.510904 0.291946,-0.775844 0,0 0.01825,-0.364932 0.01825,-0.364932 0,0 0,-0.656877 0,-0.656877 0,0 -0.01825,-0.273698 -0.01825,-0.273698 0,0 0,-0.401425 0,-0.401425 0,0 -0.01825,-0.273699 -0.01825,-0.273699 0,0 -0.03959,-0.748109 -0.03959,-0.748109 0,0 -0.05164,-0.510905 -0.05164,-0.510905 -7.44e-4,-0.06697 -0.01149,-0.233008 0.03376,-0.280997 0.03649,-0.03869 0.103092,-0.02737 0.148709,-0.01496 0.111852,0.03065 0.211843,0.09087 0.310193,0.149988 0.285011,0.171335 0.818175,0.540281 0.979111,0.821096 0.151993,0.265122 0.417116,1.081839 0.517472,1.404986 0,0 0.338657,1.094794 0.338657,1.094794 0,0 0.41511,1.404987 0.41511,1.404987 0,0 0.31895,0.985316 0.31895,0.985316 0.06058,0.156555 0.14287,0.335919 0.295412,0.419671 0.05383,-0.163307 -0.01642,-0.316943 -0.06241,-0.474411 0,0 -0.276618,-0.930576 -0.276618,-0.930576 0,0 -0.853028,-2.828219 -0.853028,-2.828219 -0.152896,-0.468934 -0.271681,-1.007574 -0.601396,-1.386737 -0.225347,-0.259102 -0.584621,-0.553054 -0.888792,-0.715631 0,0 -0.346685,-0.167504 -0.346685,-0.167504 -0.117508,-0.04744 -0.233373,-0.07408 -0.318767,-0.176809 -0.07937,-0.09579 -0.116231,-0.277895 -0.141047,-0.399782 0,0 -0.142323,-0.784604 -0.142323,-0.784604 -0.137031,-0.661805 -0.336649,-1.170885 -0.774202,-1.696934 -0.445764,-0.535719 -0.979841,-0.990423 -1.50662,-1.443851 0,0 -1.952384,-1.671205 -1.952384,-1.671205 0,0 -1.003562,-0.917438 -1.003562,-0.917438 -0.106195,-0.106195 -0.339568,-0.325153 -0.412555,-0.437918 -0.07517,-0.116048 -0.13028,-0.303258 -0.16878,-0.437917 0,0 -0.192685,-0.839343 -0.192685,-0.839343 -0.118785,-0.541011 -0.238847,-1.342218 -0.305265,-1.897644 0,0 -0.108385,-1.076548 -0.108385,-1.076548 0,0 -0.01661,-0.182466 -0.01661,-0.182466 0,0 -0.01825,-0.310192 -0.01825,-0.310192 0,0 0.01825,-0.310191 0.01825,-0.310191 0.0042,-0.04507 0.0095,-0.116596 0.04927,-0.145973 0.05474,-0.04051 0.218959,0.02189 0.279173,0.0427 0,0 0.784602,0.319497 0.784602,0.319497 0.530246,0.227717 1.320688,0.614728 1.824658,0.894265 0,0 0.821097,0.445216 0.821097,0.445216 0.143235,0.0739 0.260195,0.150899 0.419671,0.195969 -0.0033,-0.07098 -0.01186,-0.154914 -0.04471,-0.218959 -0.09342,-0.18247 -0.468937,-0.40672 -0.648666,-0.518572 -0.666912,-0.41511 -1.692735,-0.903387 -2.426795,-1.200259 0,0 -0.802849,-0.337927 -0.802849,-0.337927 -0.260926,-0.112399 -0.277348,-0.08302 -0.273517,-0.260561 0,0 0.01642,-0.16422 0.01642,-0.16422 0,0 0.03649,-0.47441 0.03649,-0.47441 0.0458,-0.666183 0.115684,-1.332548 0.24706,-1.988878 0.116047,-0.580059 0.283186,-1.148804 0.453062,-1.715178 0,0 0.15911,-0.547397 0.15911,-0.547397 0,0 0.602136,0.156555 0.602136,0.156555 0,0 0.930576,0.281362 0.930576,0.281362 1.007029,0.335737 1.995629,0.73479 2.919452,1.261751 0,0 1.021809,0.62823 1.021809,0.62823 0.101268,0.05711 0.294682,0.173342 0.39741,0.07627 0.145973,-0.137761 -0.03303,-0.296142 -0.141958,-0.385914 -0.256547,-0.211478 -0.742818,-0.503242 -1.040054,-0.675671 -0.695743,-0.403798 -1.418125,-0.758693 -2.171344,-1.042975 -0.599217,-0.225893 -1.208836,-0.391572 -1.824658,-0.562724 0,0 -0.985315,-0.232462 -0.985315,-0.232462 -0.0989,-0.02701 -0.282457,-0.09014 -0.278443,-0.216039 0.002,-0.06076 0.115137,-0.316214 0.146703,-0.383179 0,0 0.364384,-0.748109 0.364384,-0.748109 0,0 0.49722,-0.948822 0.49722,-0.948822 0.08557,-0.150352 0.161116,-0.317855 0.291945,-0.434633 0.265305,-0.236111 0.942983,-0.43956 1.295507,-0.540099 0.697566,-0.198888 1.61318,-0.364202 2.335562,-0.461639 0,0 0.948822,-0.109479 0.948822,-0.109479 0,0 0.620384,-0.04324 0.620384,-0.04324 0,0 0.967068,-0.0697 0.967068,-0.0697 0.141594,-0.0104 0.299791,-0.01916 0.437918,-0.05018 0.04689,-0.01058 0.123895,-0.03029 0.155096,-0.06861 0.04397,-0.05383 0.002,-0.106561 -0.04653,-0.136667 -0.07299,-0.04525 -0.258007,-0.0562 -0.345773,-0.05638 0,0 -0.255452,0 -0.255452,0 0,0 -0.273699,0.01825 -0.273699,0.01825 0,0 -0.145972,0 -0.145972,0 0,0 -0.182466,0.01825 -0.182466,0.01825 0,0 -0.164219,0 -0.164219,0 0,0 -0.383178,0.03484 -0.383178,0.03484 -0.71636,0.05018 -1.42743,0.156738 -2.13485,0.279902 -0.470761,0.08193 -1.018524,0.206187 -1.477973,0.336833 0,0 -0.565644,0.154 -0.565644,0.154 -0.151811,0.04105 -0.278259,0.08703 -0.437918,0.08849 z M 51.755503,6.5692069 c 0,0 -0.237205,0.018247 -0.237205,0.018247 0.08101,0.037586 0.179182,0.068428 0.237205,-0.018247 z m -4.306192,3.5215891 c 0.04945,-0.08685 0.148527,-0.273333 0.173525,-0.364931 0.06806,-0.249248 -0.0018,-0.523312 -0.151264,-0.729863 -0.278261,-0.384273 -0.993891,-0.656147 -1.336015,-0.200713 0.07244,-0.01369 0.145061,-0.03339 0.21896,-0.03576 0.213485,-0.0067 0.605057,0.09908 0.764713,0.242497 0.04999,0.04489 0.08448,0.0978 0.113129,0.158198 0.08393,0.176809 0.128821,0.390659 0.157285,0.58389 0.01296,0.08849 0.02938,0.272604 0.05967,0.346685 z M 46.135557,8.795289 c 0,0 -0.01825,0 -0.01825,0 0,0 0.01825,0.01825 0.01825,0.01825 0,0 0,-0.01825 0,-0.01825 z m -3.448603,15.527838 c 0.04216,0.108567 0.166774,0.262751 0.237571,0.364932 0.272056,0.392118 0.616004,0.73333 1.003197,1.011225 0.726396,0.521487 1.577051,0.838066 2.463288,0.943895 0,0 0.401424,0.03376 0.401424,0.03376 0,0 0.529151,0 0.529151,0 0.482623,-0.0056 1.203544,-0.187939 1.642192,-0.388834 1.332913,-0.610348 2.341218,-1.831774 2.773845,-3.223988 0.115318,-0.370588 0.193048,-0.743913 0.220236,-1.131288 0,0 0.01661,-0.218958 0.01661,-0.218958 0,0 0,-0.291946 0,-0.291946 0,0 -0.01515,-0.164219 -0.01515,-0.164219 -0.03632,-0.375519 -0.09196,-0.695928 -0.203449,-1.058305 -0.364385,-1.185115 -1.086219,-2.194881 -2.135215,-2.87037 -0.37004,-0.238299 -0.835328,-0.449595 -1.259014,-0.570388 -0.232644,-0.06642 -0.583525,-0.110209 -0.701215,-0.354531 -0.03667,-0.07591 -0.05875,-0.273881 -0.07281,-0.364931 0,0 -0.106742,-0.711616 -0.106742,-0.711616 0,0 -0.32114,-2.280823 -0.32114,-2.280823 0,0 -0.09871,-0.74811 -0.09871,-0.74811 -0.0079,-0.06021 -0.01825,-0.23538 -0.06003,-0.272056 -0.05237,-0.04598 -0.263481,-0.0562 -0.336285,-0.05638 0,0 -0.346684,0 -0.346684,0 0,0 -0.03941,0.328438 -0.03941,0.328438 0,0 -0.07517,0.638631 -0.07517,0.638631 0,0 -0.281727,2.426794 -0.281727,2.426794 0,0 -0.10948,0.894083 -0.10948,0.894083 -0.01569,0.120245 -0.02208,0.302711 -0.09269,0.400695 -0.121339,0.168233 -0.349057,0.22644 -0.5328,0.293587 -0.270596,0.0989 -0.425692,0.172248 -0.675123,0.316943 -0.562542,0.326796 -1.074176,0.792997 -1.471587,1.30609 -0.130645,0.168598 -0.297601,0.393032 -0.389564,0.583891 0.145426,-0.06879 0.339569,-0.315301 0.456895,-0.437918 0.164584,-0.172065 0.51583,-0.472587 0.710886,-0.612537 0.09981,-0.07171 0.202173,-0.144332 0.310192,-0.202903 0.540646,-0.293222 1.305725,-0.437188 1.915891,-0.497584 0,0 0.182466,0 0.182466,0 0,0 0.145973,-0.01825 0.145973,-0.01825 0.107654,-0.0046 0.128637,0.0097 0.218958,0.01825 0,0 0.182466,0 0.182466,0 0.452332,0.04561 0.891346,0.194144 1.295507,0.396133 0.908497,0.45434 1.645112,1.237666 2.06752,2.157658 0.06605,0.143966 0.13612,0.285559 0.181918,0.437918 0.131193,0.435911 0.105101,1.137674 0.104371,1.605699 0,0 -0.01825,0.273699 -0.01825,0.273699 -0.0018,0.158928 -0.01698,0.319132 -0.05273,0.47441 -0.06113,0.265488 -0.185932,0.541012 -0.307636,0.784604 -0.284464,0.568928 -0.652316,1.063957 -1.135851,1.480345 -0.572759,0.493204 -1.321416,0.937326 -2.098355,0.946449 0,0 -0.894083,0 -0.894083,0 -0.292858,0 -0.629142,-8.96e-4 -0.912329,-0.08083 -0.585168,-0.165131 -1.221973,-0.58754 -1.678685,-0.98276 0,0 -0.63863,-0.5786 -0.63863,-0.5786 z m 1.587453,-3.339124 c 0,0 0.145607,-0.456164 0.145607,-0.456164 0.06277,-0.202172 0.100539,-0.376062 0.274246,-0.52313 0.202355,-0.171335 0.791172,-0.278442 1.058119,-0.27972 0,0 0.145973,0 0.145973,0 0.254905,3.65e-4 0.479884,0.07573 0.711616,0.174803 0.596846,0.255269 1.086766,0.657059 1.342584,1.266677 0.16203,0.386463 0.271509,1.058484 0.01149,1.423234 -0.07809,0.109661 -0.260743,0.261655 -0.405256,0.251072 -0.129003,-0.0095 -0.107472,-0.155643 -0.273698,-0.04835 -0.09853,0.0635 -0.22863,0.207464 -0.29012,0.308184 -0.04325,0.07079 -0.06003,0.146155 0.0531,0.139404 0.09434,-0.0055 0.325884,-0.101998 0.419488,-0.14214 0.179912,-0.07718 0.42478,-0.191042 0.562542,-0.328804 0.250161,-0.25016 0.291945,-0.575315 0.314936,-0.909227 0,0 0.01661,-0.237206 0.01661,-0.237206 -0.0097,-0.845911 -0.53718,-1.719739 -1.295508,-2.098904 -0.30198,-0.151081 -0.721287,-0.240489 -1.058302,-0.236657 -0.294317,0.0035 -0.575861,0.110757 -0.839342,0.231549 -0.308184,0.141228 -0.625857,0.341758 -0.840437,0.607793 -0.140681,0.174255 -0.190495,0.419489 -0.151995,0.638631 0.01552,0.08777 0.01806,0.169145 0.09835,0.218958 z m 21.421481,2.82822 c -0.04673,-0.353801 -0.160752,-1.246607 -0.242496,-1.550959 0,0 -0.15473,-0.419671 -0.15473,-0.419671 -0.10182,-0.223156 -0.197611,-0.442297 -0.40562,-0.59046 -0.303806,-0.216586 -0.68425,-0.0135 -0.948826,0.164766 -0.511631,0.344861 -0.738984,0.753402 -1.043703,1.265036 0,0 -0.361282,0.638631 -0.361282,0.638631 0,0 0.383179,0.118967 0.383179,0.118967 0,0 0.383178,0.07463 0.383178,0.07463 0,0 0.748106,0.136302 0.748106,0.136302 0.547766,0.09251 1.086041,0.162759 1.642194,0.162759 z m -23.008934,0.492658 c 0,0 -0.01825,0 -0.01825,0 0,0 0.01825,0.01825 0.01825,0.01825 0,0 0,-0.01825 0,-0.01825 z m 6.587015,15.947509 c -0.05784,-0.286289 -0.220418,-0.540281 -0.341029,-0.802849 0,0 -0.454157,-1.113042 -0.454157,-1.113042 -0.462004,-1.234928 -0.830584,-2.552331 -1.150447,-3.831781 0,0 -0.335189,-1.404987 -0.335189,-1.404987 -0.01843,-0.08557 -0.05219,-0.204179 -0.116596,-0.2664 -0.03521,-0.0343 -0.09835,-0.06697 -0.135754,-0.01698 -0.05127,0.06897 0.01277,0.308185 0.02974,0.392848 0,0 0.243227,1.113042 0.243227,1.113042 0,0 0.223339,0.948822 0.223339,0.948822 0.28939,1.142966 0.661256,2.408002 1.091692,3.503344 0.132471,0.336831 0.359275,0.892986 0.549951,1.186026 0.08503,0.130463 0.217318,0.323695 0.395222,0.291946 z m -10.309317,3.301718 c 0.03339,-0.0051 0.0354,-0.01295 0.07299,0 0.0905,0.02847 0.31147,0.299974 0.381719,0.38409 0,0 1.093882,1.404986 1.093882,1.404986 0.428247,0.570937 0.846641,1.154097 1.236935,1.751672 0.650309,0.996081 1.255366,2.027013 1.867356,3.047179 0,0 0.769093,1.313754 0.769093,1.313754 0,0 0.182283,0.328438 0.182283,0.328438 0.03394,0.06039 0.05748,0.122252 0.125902,0.150899 0.05237,0.02171 0.344495,0.04543 0.418941,0.05127 0,0 0.565644,0.05328 0.565644,0.05328 0,0 0.16422,0 0.16422,0 0,0 0.875835,0.07299 0.875835,0.07299 0,0 0.164219,0 0.164219,0 0,0 1.788164,0.126085 1.788164,0.126085 0,0 1.058302,0.08229 1.058302,0.08229 0.06496,0.0088 0.312199,0.01569 0.346503,0.06058 0.03869,0.05036 -0.02956,0.189582 -0.05182,0.241949 0,0 -0.310374,0.675124 -0.310374,0.675124 0,0 -0.490468,0.967069 -0.490468,0.967069 0,0 -0.620566,1.222521 -0.620566,1.222521 0,0 -0.136849,0.291945 -0.136849,0.291945 0,0 -0.276436,0.620384 -0.276436,0.620384 -0.02354,0.0593 -0.08083,0.168781 -0.03576,0.226075 0.02682,0.0343 0.129004,0.08503 0.170789,0.107837 0,0 0.383178,0.216222 0.383178,0.216222 0,0 1.27726,0.749022 1.27726,0.749022 1.329629,0.807046 2.625501,1.66646 3.886522,2.576782 1.848196,1.334372 3.608261,2.7972 5.255014,4.372245 0,0 1.241497,1.258284 1.241497,1.258284 1.86626,1.951289 3.532899,4.098181 4.850303,6.459286 0.685159,1.228181 1.306639,2.630065 1.712627,3.977756 0.127357,0.42259 0.23191,0.787522 0.318945,1.222519 0.03666,0.183017 0.08539,0.473865 0.08759,0.656877 0.002,0.164403 -0.01716,0.372596 -0.113496,0.510723 -0.09689,0.138672 -0.251073,0.205275 -0.39741,0.278442 0,0 -0.985313,0.41876 -0.985313,0.41876 -1.625406,0.650125 -3.340948,1.197523 -5.054301,1.561726 -1.257919,0.267309 -2.515839,0.46693 -3.795288,0.590824 0,0 -0.894083,0.07153 -0.894083,0.07153 0,0 -0.620384,0.03487 -0.620384,0.03487 0,0 -0.237205,0.01826 -0.237205,0.01826 0,0 -0.273699,0 -0.273699,0 0,0 -0.291945,0.01825 -0.291945,0.01825 0,0 -1.532713,0 -1.532713,0 0,0 -0.273698,-0.01825 -0.273698,-0.01825 0,0 -0.291946,0 -0.291946,0 0,0 -0.182465,-0.01751 -0.182465,-0.01751 0,0 -0.182466,0 -0.182466,0 0,0 -0.310192,-0.019 -0.310192,-0.019 0,0 -0.182465,-0.01662 -0.182465,-0.01662 0,0 -0.711618,-0.05328 -0.711618,-0.05328 -1.004656,-0.09616 -1.998912,-0.211115 -2.992438,-0.397411 -2.083212,-0.390479 -4.341226,-1.095341 -6.29507,-1.915341 -1.76043,-0.738625 -3.47725,-1.594387 -5.090795,-2.617838 -1.621026,-1.028198 -3.221981,-2.21258 -4.671124,-3.471045 0,0 -0.967068,-0.872371 -0.967068,-0.872371 0,0 -0.200713,-0.197428 -0.200713,-0.197428 0,0 -1.186757,-1.18767 -1.186757,-1.18767 -1.078555,-1.127638 -2.071352,-2.327898 -3.007584,-3.576329 0,0 -0.903206,-1.204274 -0.903206,-1.204274 0,0 -0.246328,-0.328439 -0.246328,-0.328439 -0.03759,-0.05018 -0.09726,-0.119698 -0.105101,-0.182466 -0.0069,-0.05583 0.05547,-0.245234 0.0739,-0.310191 0,0 0.203632,-0.693371 0.203632,-0.693371 0,0 0.810512,-2.60926 0.810512,-2.60926 0.530064,-1.590189 1.077097,-2.8149 1.873742,-4.287946 0,0 0.700122,-1.259014 0.700122,-1.259014 1.051732,-1.714448 2.849385,-3.98268 4.12993,-5.583453 0,0 4.130842,-5.236767 4.130842,-5.236767 0,0 1.100999,-1.44148 1.100999,-1.44148 0.141959,-0.1894 0.401972,-0.568563 0.599765,-0.676036 z m 20.326689,0.657789 c -0.08539,0.07463 -0.12791,0.173707 -0.177905,0.273699 -0.08083,0.161481 -0.157469,0.286471 -0.149804,0.474411 0.0056,0.140498 0.07846,0.323877 0.127908,0.456165 0,0 0.321323,0.821095 0.321323,0.821095 0.03339,0.09634 0.133565,0.343036 0.07609,0.432444 -0.03339,0.05164 -0.09561,0.04762 -0.161117,0.07937 -0.09087,0.04397 -0.24943,0.232827 -0.181917,0.340299 0.03266,0.05219 0.159839,0.07061 0.218411,0.08211 0.228447,0.04471 0.362741,0.04033 0.58389,0.139769 0.470762,0.212025 0.936415,0.831497 0.804675,1.371048 -0.05091,0.208741 -0.177175,0.269502 -0.275525,0.437918 0.05711,0.01624 0.08649,0.01934 0.145974,0.01788 0.381353,-0.0091 0.34705,-0.551411 0.346684,-0.820731 -7.44e-4,-0.445764 -0.212937,-0.927656 -0.58389,-1.185298 -0.24049,-0.167138 -0.492658,-0.151811 -0.593926,-0.347415 -0.04397,-0.08485 -0.03869,-0.181918 -0.04981,-0.273698 0,0 -0.08247,-0.529151 -0.08247,-0.529151 0,0 -0.193778,-0.985315 -0.193778,-0.985315 0,0 -0.174802,-0.784602 -0.174802,-0.784602 z m 3.667561,3.485096 c 0.07189,-0.111303 0.0093,-0.429159 -0.01058,-0.565643 -0.05638,-0.3892 -0.202903,-1.088226 -0.318221,-1.459727 0,0 -0.138309,-0.401425 -0.138309,-0.401425 -0.01971,-0.04781 -0.04835,-0.121704 -0.100356,-0.141775 -0.05127,-0.01971 -0.120792,0.02518 -0.162394,0.05237 -0.09944,0.06477 -0.236841,0.187028 -0.328439,0.266766 -0.296324,0.257824 -0.639907,0.631696 -0.892622,0.935684 -0.112582,0.13539 -0.283004,0.335737 -0.311652,0.510904 0.137396,-0.04379 0.272057,-0.168233 0.383178,-0.260013 0,0 0.69337,-0.613451 0.69337,-0.613451 0,0 0.291946,-0.231731 0.291946,-0.231731 0.0385,-0.02755 0.09652,-0.07153 0.145972,-0.06806 0.14652,0.01058 0.258189,0.340846 0.297967,0.461639 0.134112,0.407446 0.275157,1.1988 0.450143,1.514465 z m 3.977752,24.340936 c 0.07828,-0.153818 0.08102,-0.32406 0.09288,-0.492656 0,0 0.01662,-0.456165 0.01662,-0.456165 0,0 0.01826,-0.291947 0.01826,-0.291947 0,0 0,-0.52915 0,-0.52915 0,0 -0.01826,-0.310192 -0.01826,-0.310192 0,0 0,-0.529151 0,-0.529151 0,0 -0.01826,-0.273699 -0.01826,-0.273699 0,0 0,-0.182465 0,-0.182465 0,0 -0.01826,-0.346685 -0.01826,-0.346685 0,0 -0.01826,-0.328439 -0.01826,-0.328439 0,0 -0.01662,-0.182466 -0.01662,-0.182466 0,0 -0.03502,-0.474411 -0.03502,-0.474411 0,0 -0.04271,-0.529151 -0.04271,-0.529151 0,0 -0.121891,-1.058301 -0.121891,-1.058301 -0.3715,-3.10721 -1.292218,-6.397432 -2.484453,-9.287508 0,0 -0.833503,-1.879398 -0.833503,-1.879398 0,0 -0.639542,-1.295507 -0.639542,-1.295507 -0.388287,-0.752489 -0.789347,-1.498591 -1.223615,-2.226083 -0.167504,-0.280632 -0.334095,-0.559257 -0.530428,-0.821095 -0.06058,-0.08066 -0.173707,-0.244687 -0.276071,-0.262751 -0.06751,-0.01205 -0.407264,0.06277 -0.492658,0.08247 0,0 -0.985315,0.247971 -0.985315,0.247971 -0.116778,0.03357 -0.42697,0.07973 -0.400877,0.242497 0.01806,0.112399 0.231001,0.397045 0.301981,0.510904 0,0 0.685523,1.149534 0.685523,1.149534 0.438101,0.763254 0.85759,1.53545 1.261021,2.317316 0,0 0.602137,1.204274 0.602137,1.204274 0,0 0.190312,0.383178 0.190312,0.383178 0,0 0.961777,2.171343 0.961777,2.171343 0.493573,1.213032 0.90704,2.458361 1.248979,3.722302 0.190859,0.705413 0.357813,1.419949 0.50981,2.13485 0.197428,0.928568 0.363106,1.862975 0.637352,2.773479 0,0 0.387374,1.021809 0.387374,1.021809 0.32789,0.896637 0.628412,1.803492 0.900107,2.71874 0,0 0.184107,0.711616 0.184107,0.711616 0.03194,0.127546 0.05601,0.2737 0.157465,0.364933 z M 46.190298,68.425106 c 0.04324,-0.326614 0.126083,-0.654687 0.127725,-0.985316 0,0 0.01825,-0.346684 0.01825,-0.346684 0,0 0,-0.912329 0,-0.912329 0,0 -0.01825,-0.310192 -0.01825,-0.310192 0,0 -0.01825,-0.620383 -0.01825,-0.620383 0,0 -0.03485,-0.474411 -0.03485,-0.474411 -0.03595,-0.524772 -0.07445,-1.048084 -0.155277,-1.569206 -0.256001,-1.648761 -0.90941,-3.515933 -1.70186,-4.981316 -0.498496,-0.921634 -1.079284,-1.804039 -1.795463,-2.572768 -0.78515,-0.842626 -1.870639,-1.604968 -2.917809,-2.085765 -0.752854,-0.345591 -1.479799,-0.594292 -2.29907,-0.731689 0,0 -0.857589,-0.101998 -0.857589,-0.101998 0,0 -0.346685,-0.01825 -0.346685,-0.01825 0,0 -0.383178,0 -0.383178,0 0,0 -0.346685,0.01825 -0.346685,0.01825 0,0 -0.839343,0.09579 -0.839343,0.09579 -0.436823,0.07262 -0.728221,0.140864 -1.149535,0.281362 -0.112398,0.03741 -0.403431,0.133565 -0.492657,0.188487 0,0 1.222521,-0.127727 1.222521,-0.127727 0,0 0.675123,0 0.675123,0 0,0 0.21896,0.01661 0.21896,0.01661 0.723659,0.04945 1.435458,0.156738 2.13485,0.356174 1.587087,0.452331 2.924378,1.356632 4.123726,2.472046 0.586444,0.54539 1.131288,1.137308 1.597852,1.789806 0.48098,0.672752 0.883682,1.432356 1.253175,2.171344 0.394127,0.788251 0.74957,1.600224 1.004109,2.445041 0.371866,1.234563 0.69629,2.734249 0.849744,4.014247 0,0 0.07737,0.802849 0.07737,0.802849 0,0 0.01661,0.182465 0.01661,0.182465 0,0 0.01825,0.346686 0.01825,0.346686 0,0 0,0.419671 0,0.419671 0,0.07809 -0.01095,0.163672 0.01825,0.237205 z M 62.192546,54.585624 c 0.184473,-0.03011 0.382631,-0.0031 0.486089,0.172795 0.153454,0.261109 0.08411,0.791172 -0.303624,0.764532 -0.440471,-0.03011 -0.742453,-0.77037 -0.182465,-0.937327 z m 2.736987,7.106495 c -0.06933,0.04635 -0.151084,0.122982 -0.237208,0.124806 -0.15345,0.0031 -0.233918,-0.236475 -0.237019,-0.362011 -0.0015,-0.05365 -9.85e-4,-0.112582 0.01439,-0.16422 0.05291,-0.176079 0.232466,-0.330628 0.423325,-0.304718 0.299242,0.04068 0.367849,0.305631 0.364927,0.560171 -0.002,0.164766 -0.07809,0.346136 -0.273332,0.32643 -0.122069,-0.01241 -0.09251,-0.09963 -0.05511,-0.180458 z m -6.9337,4.762356 c -0.296506,-0.08576 -0.749752,-0.145425 -1.058301,-0.145972 -0.393579,-5.45e-4 -0.577322,-0.236658 -0.824199,-0.510904 0,0 -1.123624,-1.332 -1.123624,-1.332 0,0 -1.13293,-1.332 -1.13293,-1.332 0,0 -0.295594,-0.328439 -0.295594,-0.328439 -0.03266,-0.03357 -0.0978,-0.102363 -0.145243,-0.108567 -0.06824,-0.009 -0.172795,0.117144 -0.218959,0.163307 0,0 -0.536814,0.583891 -0.536814,0.583891 0,0 -1.620844,1.91589 -1.620844,1.91589 0,0 -0.319315,0.383178 -0.319315,0.383178 -0.127908,0.153454 -0.144695,0.236841 -0.351247,0.237205 -0.189581,3.66e-4 -0.48025,-0.01296 -0.656876,0.01679 -0.04799,0.0081 -0.220054,0.02938 -0.194509,0.108019 0.01205,0.03741 0.06989,0.06149 0.103276,0.07463 0.09798,0.03869 0.1894,0.0489 0.291944,0.06368 0,0 1.259015,0.08357 1.259015,0.08357 0,0 0.328438,0.01825 0.328438,0.01825 0,0 0.291946,0.01825 0.291946,0.01825 0,0 0.656877,0.03649 0.656877,0.03649 0,0 0.255452,0.01825 0.255452,0.01825 0,0 0.839342,0.05474 0.839342,0.05474 0,0 0.145973,0 0.145973,0 0,0 0.182465,0.01825 0.182465,0.01825 0,0 0.510905,0.03485 0.510905,0.03485 0,0 0.69337,0.03978 0.69337,0.03978 0,0 0.839343,0.05383 0.839343,0.05383 0,0 0.200711,0.01751 0.200711,0.01751 0,0 0.218959,0.0166 0.218959,0.0166 0,0 0.675124,0.03977 0.675124,0.03977 0,0 0.145973,0.01587 0.145973,0.01587 0,0 0.273698,0.01825 0.273698,0.01825 0.05036,0.0024 0.114771,-0.0064 0.154914,0.02992 0.03631,0.03266 0.04872,0.106378 0.05602,0.153272 0.02099,0.132105 0.02481,0.268042 0.02627,0.401424 0,0 0.01825,0.255452 0.01825,0.255452 0.0013,0.257095 -0.01095,0.2841 0.03649,0.547398 0.09379,-0.06331 0.114041,-0.308914 0.132288,-0.419671 0,0 0.141411,-1.240768 0.141411,-1.240768 z m -4.707617,-3.19315 c 0.143783,0.10802 0.235381,0.276983 0.368033,0.394491 0,0 0.124624,0.08923 0.124624,0.08923 0,0 0.182466,0.155643 0.182466,0.155643 0.385368,0.368581 0.865618,0.963237 1.217959,1.38601 0,0 0.435181,0.529152 0.435181,0.529152 0.0801,0.09999 0.176992,0.201441 0.208012,0.330993 0,0 -0.237206,0 -0.237206,0 -0.08996,0.01934 -0.174803,0.105283 -0.218959,-0.0208 0,0 -0.529151,-0.01825 -0.529151,-0.01825 0,0 -0.291945,-0.01825 -0.291945,-0.01825 0,0 -0.401425,-0.01825 -0.401425,-0.01825 0,0 -0.510904,0 -0.510904,0 0,0 -0.69337,-0.0531 -0.69337,-0.0531 0,0 -0.492657,-0.01989 -0.492657,-0.01989 0,0 -0.21896,-0.01751 -0.21896,-0.01751 0,0 -0.218958,0 -0.218958,0 0,0 -0.182467,-0.01825 -0.182467,-0.01825 0,0 -0.218958,0 -0.218958,0 0,0 -0.237206,-0.01733 -0.237206,-0.01733 0,0 -0.291945,0.0531 -0.291945,0.0531 0.04671,-0.119332 0.159658,-0.227899 0.240855,-0.328438 0,0 0.502693,-0.620383 0.502693,-0.620383 0,0 0.231732,-0.310192 0.231732,-0.310192 0,0 0.415109,-0.492657 0.415109,-0.492657 0,0 0.817447,-0.985316 0.817447,-0.985316 z"
         id="path2"
         style="stroke-width:0.0361578" />
      <path
         d="m 594.85158,25.79263 c 0,0 7.9344,-1.20218 7.9344,-1.20218 0,0 0,29.212932 0,29.212932 0,0 0.10096,7.092855 0.10096,7.092855 0.12384,1.164911 0.30654,2.3755 1.23224,3.206209 1.09518,0.98338 2.35146,0.877589 3.59572,1.241848 0,0 -1.08196,6.491763 -1.08196,6.491763 -3.57288,0 -8.25416,-0.508522 -10.33153,-3.846969 -0.98936,-1.591684 -1.44138,-4.147518 -1.44983,-6.010895 0,0 0,-7.213069 0,-7.213069 0,0 0,-28.972494 0,-28.972494 z M 254.15425,25.123015 c 1.76843,-0.217598 3.7436,0.58426 4.71137,2.112229 1.56041,2.464464 0.59745,6.128701 -2.18679,7.204652 -0.61072,0.236828 -1.50873,0.389504 -2.16392,0.364259 -1.32358,-0.05169 -2.67005,-0.569833 -3.56807,-1.568843 -1.45825,-1.622939 -1.50753,-4.648823 -0.17067,-6.355914 0.89677,-1.145676 2.00641,-1.531579 3.37808,-1.756383 z M 104.2426,29.51938 c 0,0 33.78124,0 33.78124,0 0,0 0,7.092854 0,7.092854 0,0 -12.74309,0 -12.74309,0 0,0 0,34.622735 0,34.622735 0,0 -8.29502,0 -8.29502,0 0,0 0,-34.622735 0,-34.622735 0,0 -12.74313,0 -12.74313,0 0,0 0,-7.092854 0,-7.092854 z m 360.89396,0 c 0,0 8.29502,0 8.29502,0 0,0 0,34.622734 0,34.622734 0,0 18.63378,0 18.63378,0 0,0 0,7.092855 0,7.092855 0,0 -26.9288,0 -26.9288,0 0,0 0,-41.715589 0,-41.715589 z M 315.82601,70.393443 c 0,0 -4.20763,1.268299 -4.20763,1.268299 -1.43421,0.288524 -2.64358,0.294534 -4.0874,0.294534 -3.26394,0 -6.25375,-0.340216 -8.77468,-2.665231 -2.13151,-1.965559 -2.91409,-5.242699 -3.1365,-8.034154 0,0 -0.11057,-1.20218 -0.11057,-1.20218 0,0 0,-9.978083 0,-9.978083 0,0 0,-17.551801 0,-17.551801 0,-0.336611 -0.0686,-0.824695 0.27769,-1.014639 0,0 2.36708,-0.437595 2.36708,-0.437595 0,0 5.28959,-0.831906 5.28959,-0.831906 0,0 0,9.497209 0,9.497209 0,0 11.18022,0 11.18022,0 0,0 0,6.611982 0,6.611982 0,0 -11.18022,0 -11.18022,0 0,0 0,12.382434 0,12.382434 0.004,2.120647 0.43514,4.82194 2.52457,5.891877 0.65639,0.335409 1.90421,0.566227 2.64478,0.595078 0.54696,0.02164 0.70686,-0.04568 1.20219,-0.09497 1.98478,-0.198358 2.93332,-0.477267 4.80868,-1.102398 0,0 0.69726,3.486316 0.69726,3.486316 0,0 0.50494,2.885228 0.50494,2.885228 z m 94.85186,0 c 0,0 -4.20763,1.268299 -4.20763,1.268299 -1.43417,0.288524 -2.64357,0.294534 -4.0874,0.294534 -3.26389,0 -6.25371,-0.340216 -8.77468,-2.665231 -2.1315,-1.965559 -2.91409,-5.242699 -3.13649,-8.034154 0,0 -0.11062,-1.20218 -0.11062,-1.20218 0,0 0,-9.978083 0,-9.978083 0,0 0,-17.551801 0,-17.551801 0.004,-0.336611 -0.0685,-0.824695 0.27773,-1.014639 0,0 2.36708,-0.437595 2.36708,-0.437595 0,0 5.28959,-0.831906 5.28959,-0.831906 0,0 0,9.497209 0,9.497209 0,0 11.18027,0 11.18027,0 0,0 0,6.611982 0,6.611982 0,0 -11.18027,0 -11.18027,0 0,0 0,12.382434 0,12.382434 0.004,2.120647 0.43518,4.82194 2.52454,5.891877 0.65642,0.335409 1.90429,0.566227 2.64481,0.595078 0.54701,0.02164 0.70691,-0.04568 1.20219,-0.09497 1.98478,-0.198358 2.93332,-0.477267 4.80873,-1.102398 0,0 0.69725,3.486316 0.69725,3.486316 0,0 0.5049,2.885228 0.5049,2.885228 z M 191.52077,46.830747 c 0,0 -0.71168,-4.688491 -0.71168,-4.688491 -0.0601,-0.369071 -0.32701,-1.448628 -0.12504,-1.735951 0.16952,-0.24404 0.90523,-0.397917 1.19734,-0.472454 0,0 3.60654,-0.70688 3.60654,-0.70688 0,0 3.24591,-0.330601 3.24591,-0.330601 0,0 3.24587,0 3.24587,0 3.11125,0.0048 7.12052,1.042288 9.20386,3.48632 1.78886,2.099004 2.33948,4.546637 2.59794,7.21307 0,0 0.0998,1.202175 0.0998,1.202175 0,0 0,18.633767 0,18.633767 0,0.250054 0.0278,0.690048 -0.12264,0.89442 -0.23446,0.317375 -2.05574,0.556607 -2.52217,0.638356 0,0 -4.6885,0.730927 -4.6885,0.730927 0,0 -2.52457,0.151473 -2.52457,0.151473 0,0 -1.44263,0.109398 -1.44263,0.109398 0,0 -2.88524,0 -2.88524,0 0,0 -2.52454,-0.222401 -2.52454,-0.222401 -3.83254,-0.458032 -7.6495,-1.978788 -9.05241,-5.908708 -0.65278,-1.828517 -0.58668,-3.392548 -0.56504,-5.289588 0.01,-0.734528 0.18033,-1.459441 0.37869,-2.16392 0.34384,-1.217805 1.02186,-2.234848 1.90546,-3.125663 3.18336,-3.206209 8.1207,-3.535607 12.38242,-3.486315 0.96777,0.01202 3.07399,0.274097 3.9672,0.601088 0,-1.380101 0.0577,-2.261295 -0.44601,-3.606535 -0.81027,-2.165123 -2.83476,-2.965775 -4.96377,-3.135278 0,0 -0.96177,-0.105796 -0.96177,-0.105796 0,0 -1.68305,0.115411 -1.68305,0.115411 -1.35123,0.0072 -3.00904,0.274093 -4.32782,0.586661 0,0 -2.28415,0.615515 -2.28415,0.615515 z m 30.17466,16.830499 c 0,0 2.40439,0.791032 2.40439,0.791032 2.01122,0.587866 3.33361,0.83431 5.40978,1.032668 0,0 1.20219,0.09979 1.20219,0.09979 1.992,0.0084 5.47228,-0.234428 5.27753,-3.005451 -0.0577,-0.836714 -0.57341,-1.370481 -1.19013,-1.885012 -1.05912,-0.883602 -2.91289,-1.612121 -4.20763,-2.130262 -4.29177,-1.716711 -9.43228,-3.73276 -9.49722,-9.208686 -0.0157,-1.327202 -0.0793,-2.68687 0.33062,-3.967188 0.22961,-0.722509 0.56263,-1.408951 0.97498,-2.043702 1.92945,-2.970582 6.21284,-4.443253 9.63424,-4.448061 0,0 2.52458,0 2.52458,0 1.73593,0.0025 4.192,0.461638 5.89068,0.886007 0.39789,0.09978 1.7107,0.426772 1.91868,0.738138 0.2224,0.331803 -0.0962,1.354855 -0.1912,1.741956 0,0 -1.00619,4.568276 -1.00619,4.568276 0,0 -3.9672,-1.14808 -3.9672,-1.14808 -1.52315,-0.306553 -2.67482,-0.312567 -4.20763,-0.294534 -1.87897,0.02284 -4.77143,1.056716 -3.95514,3.48632 0.0914,0.270487 0.25726,0.609501 0.42557,0.840324 0.48807,0.668409 1.24306,1.054308 1.96675,1.413759 0,0 4.20763,1.714307 4.20763,1.714307 2.90328,1.194964 6.38837,2.802277 7.63985,5.889469 0.6684,1.64939 0.67441,2.956159 0.65518,4.6885 -0.01,0.760975 -0.19235,1.675836 -0.41355,2.404355 -1.38609,4.583905 -7.07961,6.244112 -11.36778,6.251324 0,0 -3.12567,0 -3.12567,0 -1.25147,-0.0025 -3.21582,-0.259665 -4.44806,-0.531363 0,0 -4.32787,-1.271904 -4.32787,-1.271904 0,0 1.44262,-6.611978 1.44262,-6.611978 z m 45.08171,0 c 0,0 2.40434,0.791032 2.40434,0.791032 2.01127,0.587866 3.33366,0.83431 5.40983,1.032668 0,0 1.20215,0.09979 1.20215,0.09979 1.99203,0.0084 5.47232,-0.234428 5.27757,-3.005451 -0.0577,-0.836714 -0.57346,-1.370481 -1.19014,-1.885012 -1.05916,-0.883602 -2.91289,-1.612121 -4.20763,-2.130262 -4.29181,-1.716711 -9.43231,-3.73276 -9.49722,-9.208686 -0.0157,-1.327202 -0.0793,-2.68687 0.33058,-3.967188 0.22965,-0.722509 0.56263,-1.408951 0.97498,-2.043702 1.9295,-2.970582 6.21285,-4.443253 9.63424,-4.448061 0,0 2.52462,0 2.52462,0 1.7359,0.0025 4.19197,0.461638 5.89065,0.886007 0.39792,0.09978 1.71069,0.426772 1.91871,0.738138 0.22236,0.331803 -0.0962,1.354855 -0.19119,1.741956 0,0 -1.00619,4.568276 -1.00619,4.568276 0,0 -3.9672,-1.14808 -3.9672,-1.14808 -1.52316,-0.306553 -2.67487,-0.312567 -4.20763,-0.294534 -1.87901,0.02284 -4.77143,1.056716 -3.95519,3.48632 0.0914,0.270487 0.25726,0.609501 0.42558,0.840324 0.48811,0.668409 1.24305,1.054308 1.96679,1.413759 0,0 4.20759,1.714307 4.20759,1.714307 2.90327,1.194964 6.38841,2.802277 7.63988,5.889469 0.66841,1.64939 0.67442,2.956159 0.65514,4.6885 -0.01,0.760975 -0.19231,1.675836 -0.41355,2.404355 -1.38609,4.583905 -7.07961,6.244112 -11.36777,6.251324 0,0 -3.12563,0 -3.12563,0 -1.25148,-0.0025 -3.21587,-0.259665 -4.44811,-0.531363 0,0 -4.32782,-1.271904 -4.32782,-1.271904 0,0 1.44262,-6.611978 1.44262,-6.611978 z m 78.38205,0 c 0,0 0.83187,4.688495 0.83187,4.688495 0.0649,0.39311 0.32701,1.434196 0.12504,1.753975 -0.16591,0.264482 -0.78263,0.464046 -1.07715,0.56743 -0.98099,0.341418 -2.10622,0.592674 -3.12567,0.804257 -4.29177,0.887209 -9.56814,0.960544 -13.70485,-0.608299 -1.05912,-0.401528 -1.70709,-0.766993 -2.64477,-1.39573 -5.0083,-3.360091 -6.43766,-9.010327 -6.37159,-14.70625 0,0 0.10942,-1.202176 0.10942,-1.202176 0.26567,-3.62938 1.40536,-7.109682 3.87826,-9.857863 2.5065,-2.785446 6.39678,-4.802705 10.19807,-4.808715 0,0 1.56282,0 1.56282,0 2.83111,0.0048 6.25251,1.069941 8.41526,2.921295 4.69931,4.021288 5.15252,10.461355 4.68849,16.193344 0,0 -20.67745,0 -20.67745,0 0.36063,1.428187 0.30774,2.125451 1.18653,3.486316 2.86717,4.439643 8.96704,4.071778 13.48004,3.075172 0,0 3.12568,-0.911251 3.12568,-0.911251 z m 94.85182,0 c 0,0 0.83191,4.688495 0.83191,4.688495 0.065,0.39311 0.32701,1.434196 0.12504,1.753975 -0.16591,0.264482 -0.78263,0.464046 -1.07715,0.56743 -0.98099,0.341418 -2.10621,0.592674 -3.12567,0.804257 -4.29177,0.887209 -9.56813,0.960544 -13.70481,-0.608299 -1.05912,-0.401528 -1.70713,-0.766993 -2.64481,-1.39573 -5.00829,-3.360091 -6.43765,-9.010327 -6.37155,-14.70625 0,0 0.10942,-1.202176 0.10942,-1.202176 0.26567,-3.62938 1.40532,-7.109682 3.87822,-9.857863 2.50655,-2.785446 6.39678,-4.802705 10.19807,-4.808715 0,0 1.56282,0 1.56282,0 2.83112,0.0048 6.25255,1.069941 8.41526,2.921295 4.69931,4.021288 5.15253,10.461355 4.68849,16.193344 0,0 -20.67744,0 -20.67744,0 0.36062,1.428187 0.30774,2.125451 1.18652,3.486316 2.86722,4.439643 8.96704,4.071778 13.48005,3.075172 0,0 3.12563,-0.911251 3.12563,-0.911251 z m 69.60612,-24.739627 c 0,0 2.88524,0 2.88524,0 3.72076,0.01923 7.76128,1.999218 10.18365,4.783466 2.18195,2.507743 3.84216,6.50619 3.88187,9.857863 0,0 0.11659,1.923483 0.11659,1.923483 0,0 -0.12385,1.202179 -0.12385,1.202179 0,0 0,1.081961 0,1.081961 -0.36903,3.729154 -1.84411,7.671101 -4.57186,10.318299 -2.53299,2.458451 -6.1876,3.981611 -9.72683,3.987621 0,0 -2.04372,0 -2.04372,0 -1.13604,-0.01322 -2.88284,-0.363057 -3.9672,-0.721303 -6.27054,-2.072561 -9.64265,-7.570121 -10.10909,-13.945271 0,0 -0.10942,-1.322394 -0.10942,-1.322394 -0.0145,-3.024683 0.32341,-5.87144 1.60012,-8.655684 1.42455,-3.110037 3.9311,-5.744009 7.05562,-7.175805 1.80685,-0.828301 3.01145,-1.030265 4.92888,-1.334415 z m 47.72652,31.592043 c 0,0 -1.44266,0.478465 -1.44266,0.478465 0,0 -2.64478,0.669615 -2.64478,0.669615 -4.02249,0.804258 -9.36376,0.59027 -13.10371,-1.18655 -5.09006,-2.418783 -7.44993,-7.710774 -7.82498,-13.065275 0,0 -0.10942,-1.442614 -0.10942,-1.442614 -0.004,-2.385124 0.24163,-4.458878 1.00143,-6.732197 0.71407,-2.131464 2.05213,-4.559862 3.69187,-6.110672 2.73977,-2.590698 6.41,-4.222054 10.2137,-4.228064 0,0 2.40438,0 2.40438,0 1.41859,0.01683 3.68707,0.423167 5.04916,0.84393 0,0 2.16391,0.718903 2.16391,0.718903 0,0 -1.56286,6.491763 -1.56286,6.491763 0,0 -3.24586,-0.882396 -3.24586,-0.882396 -2.55463,-0.553006 -5.70434,-0.498906 -7.93441,1.013433 -1.24061,0.841526 -2.13141,2.113431 -2.71328,3.475498 -1.25988,2.94654 -1.25027,7.977655 0.29692,10.819605 0.6035,1.109613 1.66743,2.173536 2.77703,2.777032 2.44525,1.330808 6.00491,1.203382 8.65569,0.629943 0,0 3.12568,-0.882401 3.12568,-0.882401 0,0 1.20219,6.611982 1.20219,6.611982 z m 6.73221,-23.682915 c 0,0 -0.71172,-4.688491 -0.71172,-4.688491 -0.0601,-0.369071 -0.32697,-1.448628 -0.12504,-1.735951 0.16951,-0.24404 0.90527,-0.397917 1.19738,-0.472454 0,0 3.60654,-0.70688 3.60654,-0.70688 0,0 3.24587,-0.330601 3.24587,-0.330601 0,0 3.24591,0 3.24591,0 3.11121,0.0048 7.12048,1.042288 9.20386,3.48632 1.78886,2.099004 2.33944,4.546637 2.5979,7.21307 0,0 0.0998,1.202175 0.0998,1.202175 0,0 0,18.633767 0,18.633767 0,0.250054 0.0278,0.690048 -0.12264,0.89442 -0.23442,0.317375 -2.05574,0.556607 -2.52218,0.638356 0,0 -4.68849,0.730927 -4.68849,0.730927 0,0 -2.52458,0.151473 -2.52458,0.151473 0,0 -1.44262,0.109398 -1.44262,0.109398 0,0 -2.8852,0 -2.8852,0 0,0 -2.52458,-0.222401 -2.52458,-0.222401 -3.83254,-0.458032 -7.64946,-1.978788 -9.05242,-5.908708 -0.65278,-1.828517 -0.58663,-3.392548 -0.56499,-5.289588 0.01,-0.734528 0.18033,-1.459441 0.37865,-2.16392 0.34384,-1.217805 1.02186,-2.234848 1.90545,-3.125663 3.18341,-3.206209 8.12071,-3.535607 12.38247,-3.486315 0.96773,0.01202 3.07395,0.274097 3.9672,0.601088 0,-1.380101 0.0577,-2.261295 -0.44601,-3.606535 -0.81031,-2.165123 -2.83476,-2.965775 -4.96382,-3.135278 0,0 -0.96172,-0.105796 -0.96172,-0.105796 0,0 -1.68305,0.115411 -1.68305,0.115411 -1.35127,0.0072 -3.00908,0.274093 -4.32786,0.586661 0,0 -2.28411,0.615515 -2.28411,0.615515 z M 355.3777,40.699638 c 0,0 2.04367,-0.455624 2.04367,-0.455624 0,0 4.44806,-0.815079 4.44806,-0.815079 2.71693,-0.402726 5.43266,-0.4436 8.17484,-0.412346 2.1603,0.02524 4.87122,0.628741 6.73216,1.737149 3.59812,2.144685 4.71975,5.644226 5.18743,9.563329 0.33177,2.77583 0.2224,5.618982 0.2224,8.415245 0,0 0,12.502657 0,12.502657 0,0 -8.0546,0 -8.0546,0 0,0 0,-18.032674 0,-18.032674 -0.005,-2.78184 -0.69725,-6.157556 -3.72677,-7.06761 -0.61191,-0.183935 -1.16609,-0.262073 -1.80329,-0.265679 0,0 -1.80324,0 -1.80324,0 0,0 -3.4863,0.360653 -3.4863,0.360653 0,0 0,25.00531 0,25.00531 0,0 -7.93436,0 -7.93436,0 0,0 0,-30.535331 0,-30.535331 z M 139.82709,39.737896 c 0,0 7.9344,0 7.9344,0 0,0 0,17.551806 0,17.551806 0,0 0.11178,1.44261 0.11178,1.44261 0.24288,2.627966 0.97498,5.31964 3.85538,6.111878 0.55542,0.152676 1.10599,0.252458 1.68305,0.25967 2.63039,0.03005 2.84919,-0.173113 5.16939,-0.360654 0,0 0,-25.00531 0,-25.00531 0,0 7.93436,0 7.93436,0 0,0 0,30.535328 0,30.535328 0,0 -1.92348,0.430382 -1.92348,0.430382 0,0 -3.84696,0.739341 -3.84696,0.739341 -3.1377,0.483272 -5.738,0.549396 -8.89612,0.513329 -2.07137,-0.02524 -4.83037,-0.674423 -6.61198,-1.737148 -3.20264,-1.910261 -4.507,-4.96139 -5.09844,-8.481369 -0.15629,-0.929284 -0.31018,-2.067745 -0.31138,-3.005447 0,0 0,-18.994416 0,-18.994416 z m 110.84086,0 c 0,0 7.93436,0 7.93436,0 0,0 0,31.497073 0,31.497073 0,0 -7.93436,0 -7.93436,0 0,0 0,-31.497073 0,-31.497073 z m 89.8027,12.622873 c -0.0228,-1.05912 -0.3234,-2.40075 -0.75859,-3.366101 -0.41832,-0.925675 -0.95451,-1.711899 -1.76598,-2.34064 -1.94993,-1.511137 -5.29921,-1.525564 -7.33327,-0.171911 -1.79127,1.19256 -3.02832,3.751999 -3.12567,5.878652 0,0 12.98351,0 12.98351,0 z m 94.85187,0 c -0.0228,-1.05912 -0.32337,-2.40075 -0.75855,-3.366101 -0.4184,-0.925675 -0.95455,-1.711899 -1.76599,-2.34064 -1.94997,-1.511137 -5.29924,-1.525564 -7.3333,-0.171911 -1.79127,1.19256 -3.02828,3.751999 -3.12568,5.878652 0,0 12.98352,0 12.98352,0 z m 75.37661,-6.593949 c -0.95215,0.156286 -1.65301,0.275299 -2.52458,0.741744 -4.0658,2.177146 -4.56109,8.706178 -3.56207,12.704621 0.83312,3.330034 2.90208,5.925535 6.56751,6.009688 3.29759,0.07454 5.524,-1.903045 6.5711,-4.927728 0.2825,-0.817479 0.50014,-1.666221 0.60711,-2.524574 0.53735,-4.305001 -0.23683,-10.371193 -5.13454,-11.776538 -0.56139,-0.161094 -1.457,-0.257266 -2.04367,-0.227213 0,0 -0.48086,0 -0.48086,0 z M 200.89775,57.323361 c -1.11801,0.161089 -2.18434,0.209179 -3.24587,0.672019 -0.71051,0.311361 -1.3669,0.774201 -1.76002,1.458243 -0.44119,0.770595 -0.4075,1.4366 -0.40393,2.284136 0.006,1.14207 0.26811,2.083374 1.20339,2.821513 1.50517,1.188954 4.17518,1.166113 6.00972,1.145676 0,0 2.52454,-0.189945 2.52454,-0.189945 0.24648,-0.03365 0.67806,-0.03846 0.83912,-0.242838 0.15028,-0.191146 0.12264,-0.65038 0.12264,-0.889612 0,0 0,-5.650241 0,-5.650241 0,-0.236828 0.0311,-0.684038 -0.11904,-0.873983 -0.19591,-0.246448 -1.00743,-0.328192 -1.32358,-0.37748 -1.15287,-0.180329 -2.68689,-0.264482 -3.84697,-0.157488 z m 372.55505,0 c -1.11802,0.161089 -2.18435,0.209179 -3.24587,0.672019 -0.71047,0.311361 -1.3669,0.774201 -1.75998,1.458243 -0.44119,0.770595 -0.40754,1.4366 -0.40393,2.284136 0.006,1.14207 0.26807,2.083374 1.20339,2.821513 1.50512,1.188954 4.17518,1.166113 6.00968,1.145676 0,0 2.52458,-0.189945 2.52458,-0.189945 0.24644,-0.03365 0.67802,-0.03846 0.83912,-0.242838 0.15028,-0.191146 0.12264,-0.65038 0.12264,-0.889612 0,0 0,-5.650241 0,-5.650241 0,-0.236828 0.0311,-0.684038 -0.11904,-0.873983 -0.19595,-0.246448 -1.00743,-0.328192 -1.32363,-0.37748 -1.15287,-0.180329 -2.68684,-0.264482 -3.84696,-0.157488 z"
         id="path8"
         style="stroke-width:0.120218" />
    </g>
  </symbol>
</svg>
